<svg version="1.1" id="Layer_1" xmlns="http://www.w3.org/2000/svg" xmlns:xlink="http://www.w3.org/1999/xlink" x="0px" y="0px"
	 width="100%" viewBox="0 0 2000 2000" enable-background="new 0 0 2000 2000" xml:space="preserve">
<path fill="#FFFFFF" opacity="1.000000" stroke="none" 
	d="
M1065.000000,2001.000000 
	C710.000000,2001.000000 355.500000,2001.000000 1.000000,2001.000000 
	C1.000000,1334.333374 1.000000,667.666687 1.000000,1.000000 
	C667.666687,1.000000 1334.333374,1.000000 2001.000000,1.000000 
	C2001.000000,667.666687 2001.000000,1334.333374 2001.000000,2001.000000 
	C1689.166626,2001.000000 1377.333374,2001.000000 1065.000000,2001.000000 
M1157.500000,1860.000000 
	C1390.593628,1860.000000 1623.687256,1860.000000 1857.000000,1860.000000 
	C1857.000000,1857.616333 1857.000000,1855.804810 1857.000000,1853.993286 
	C1857.000000,1703.494019 1857.000000,1552.994751 1857.000000,1402.495483 
	C1857.000000,1256.829468 1856.997070,1111.163574 1857.032227,965.497559 
	C1857.032715,963.590210 1857.206299,961.572754 1857.836548,959.797546 
	C1859.383789,955.439575 1861.909424,951.334229 1862.856323,946.875488 
	C1865.732544,933.331238 1868.100098,919.799011 1866.166016,905.692200 
	C1864.100220,890.626587 1863.354492,875.381104 1861.987305,860.218201 
	C1861.488770,854.690369 1860.919312,849.167297 1860.277832,843.654175 
	C1859.230347,834.651367 1857.145996,825.659241 1857.139038,816.661316 
	C1856.962769,587.162537 1857.000000,357.663666 1857.000000,128.164780 
	C1857.000000,126.217628 1857.000000,124.270477 1857.000000,122.232193 
	C1291.468750,122.232193 726.398926,122.232193 161.000000,122.232193 
	C161.000000,124.423721 161.000000,126.387779 161.000000,128.351837 
	C161.000000,326.350861 161.008667,524.349915 160.911224,722.348877 
	C160.909866,725.108093 159.868881,727.987183 158.799133,730.599915 
	C156.694138,735.741028 154.287964,740.622253 157.601166,746.266479 
	C159.771637,749.963989 161.144547,753.794067 161.142548,758.497803 
	C160.987122,1123.662598 161.000000,1488.827515 161.000000,1853.992432 
	C161.000000,1855.924805 161.000000,1857.857056 161.000000,1860.000000 
	C493.215027,1860.000000 824.857483,1860.000000 1157.500000,1860.000000 
z"/>
<path fill="#000000" opacity="1.000000" stroke="none" 
	d="
M1157.000000,1860.000000 
	C824.857483,1860.000000 493.215027,1860.000000 161.000000,1860.000000 
	C161.000000,1857.857056 161.000000,1855.924805 161.000000,1853.992432 
	C161.000000,1488.827515 160.987122,1123.662598 161.142548,758.497803 
	C161.144547,753.794067 159.771637,749.963989 157.601166,746.266479 
	C154.287964,740.622253 156.694138,735.741028 158.799133,730.599915 
	C159.868881,727.987183 160.909866,725.108093 160.911224,722.348877 
	C161.008667,524.349915 161.000000,326.350861 161.000000,128.351837 
	C161.000000,126.387779 161.000000,124.423721 161.000000,122.232193 
	C726.398926,122.232193 1291.468750,122.232193 1857.000000,122.232193 
	C1857.000000,124.270477 1857.000000,126.217628 1857.000000,128.164780 
	C1857.000000,357.663666 1856.962769,587.162537 1857.139038,816.661316 
	C1857.145996,825.659241 1859.230347,834.651367 1860.277832,843.654175 
	C1860.919312,849.167297 1861.488770,854.690369 1861.987305,860.218201 
	C1863.354492,875.381104 1864.100220,890.626587 1866.166016,905.692200 
	C1868.100098,919.799011 1865.732544,933.331238 1862.856323,946.875488 
	C1861.909424,951.334229 1859.383789,955.439575 1857.836548,959.797546 
	C1857.206299,961.572754 1857.032715,963.590210 1857.032227,965.497559 
	C1856.997070,1111.163574 1857.000000,1256.829468 1857.000000,1402.495483 
	C1857.000000,1552.994751 1857.000000,1703.494019 1857.000000,1853.993286 
	C1857.000000,1855.804810 1857.000000,1857.616333 1857.000000,1860.000000 
	C1623.687256,1860.000000 1390.593628,1860.000000 1157.000000,1860.000000 
z"/>
</svg>