<svg width="198" height="173" viewBox="0 0 198 173" fill="none" xmlns="http://www.w3.org/2000/svg">
<path d="M92.0254 121.082V140.807C92.0254 142.164 91.4862 143.465 90.5266 144.425C89.567 145.385 88.2655 145.924 86.9084 145.924H49.4071C48.0505 145.922 46.7499 145.382 45.7907 144.423C44.8314 143.464 44.2919 142.163 44.2902 140.807V121.082C44.2906 120.153 44.3685 119.226 44.5233 118.31C45.1809 114.363 47.2166 110.778 50.2685 108.191C53.3203 105.604 57.1906 104.184 61.1913 104.181H75.1243C79.6067 104.181 83.9056 105.962 87.0751 109.132C90.2447 112.301 92.0254 116.6 92.0254 121.082Z" fill="#B63E96" stroke="#231F20" stroke-width="2" stroke-miterlimit="10"/>
<path d="M82.7998 127.416V145.924H49.4009C48.0443 145.922 46.7436 145.382 45.7844 144.423C44.8251 143.464 44.2855 142.163 44.2839 140.807V121.083C44.2843 120.153 44.3623 119.226 44.5171 118.31C45.9647 116.269 47.8807 114.605 50.1045 113.458C52.3282 112.311 54.7947 111.715 57.2968 111.718H67.1275C71.2858 111.727 75.271 113.384 78.2091 116.327C81.1471 119.269 82.7981 123.257 82.7998 127.416Z" fill="#BD53A1"/>
<path d="M80.9911 91.3639C80.9911 93.9005 80.2389 96.3802 78.8295 98.4892C77.4201 100.598 75.4169 102.242 73.0732 103.212C70.7296 104.183 68.1508 104.436 65.6631 103.941C63.1753 103.446 60.8903 102.224 59.0971 100.43C57.3039 98.6355 56.083 96.3499 55.5888 93.8619C55.0947 91.3739 55.3496 88.7952 56.3212 86.4521C57.2928 84.1089 58.9374 82.1065 61.0471 80.6982C63.1568 79.2898 65.6368 78.5388 68.1734 78.54C71.5735 78.5417 74.8337 79.8935 77.2373 82.2983C79.6409 84.703 80.9911 87.9639 80.9911 91.3639Z" fill="#F0D2A0" stroke="#231F20" stroke-width="2" stroke-miterlimit="10"/>
<path d="M76.4476 90.3118C76.4476 91.4958 76.0965 92.6532 75.4387 93.6377C74.7809 94.6222 73.8459 95.3896 72.752 95.8427C71.6581 96.2958 70.4543 96.4143 69.293 96.1833C68.1317 95.9523 67.0651 95.3821 66.2279 94.5449C65.3906 93.7076 64.8205 92.6409 64.5895 91.4797C64.3585 90.3184 64.477 89.1147 64.9301 88.0208C65.3833 86.9269 66.1505 85.9919 67.135 85.3341C68.1194 84.6762 69.277 84.3252 70.461 84.3252C72.0488 84.3252 73.5715 84.9559 74.6942 86.0786C75.8169 87.2013 76.4476 88.724 76.4476 90.3118Z" fill="#FFEBB6"/>
<path d="M92.0254 121.082V140.807C92.0254 142.164 91.4862 143.465 90.5266 144.425C89.567 145.385 88.2655 145.924 86.9084 145.924H49.4071C48.0505 145.922 46.7499 145.382 45.7907 144.423C44.8314 143.464 44.2919 142.163 44.2902 140.807V121.082C44.2906 120.153 44.3685 119.226 44.5233 118.31C45.1809 114.363 47.2166 110.778 50.2685 108.191C53.3203 105.604 57.1906 104.184 61.1913 104.181H75.1243C79.6067 104.181 83.9056 105.962 87.0751 109.132C90.2447 112.301 92.0254 116.6 92.0254 121.082Z" stroke="black" stroke-width="2" stroke-miterlimit="10"/>
<path d="M43.641 88.4971C43.4079 88.6357 43.1685 88.7555 42.929 88.8815C42.9313 88.9025 42.9313 88.9236 42.929 88.9445C42.929 89.1336 42.8912 89.3163 42.8659 89.4927C42.2673 95.0319 41.6686 98.731 41.4291 100.092C41.3959 100.289 41.31 100.474 41.1805 100.626C41.0511 100.778 40.8829 100.893 40.6937 100.957C40.5046 101.022 40.3014 101.034 40.1059 100.993C39.9103 100.951 39.7296 100.858 39.5828 100.722C38.1271 99.2855 34.3586 95.6243 31.1322 92.3537H31.0818C27.4775 92.7932 23.8386 92.8776 20.2178 92.6057C17.6114 92.4573 15.0353 91.9702 12.5548 91.1564C10.2212 90.2632 8.10011 88.8921 6.3273 87.1312C4.55448 85.3703 3.16908 83.2584 2.26013 80.9309C1.35118 78.6033 0.938724 76.1115 1.04903 73.6152C1.15933 71.1189 1.79006 68.6732 2.90076 66.4349C3.27449 65.6979 3.71304 64.9956 4.2114 64.3364C4.59092 63.8018 5.01236 63.2981 5.47174 62.8303C10.5131 57.455 19.8837 54.739 30.5966 55.5834C32.3472 55.7154 34.0878 55.9575 35.8081 56.3081C44.2082 58.0411 49.9742 63.6244 51.1904 71.2431C52.2995 78.3073 49.281 85.2517 43.641 88.4971Z" fill="#BD53A1"/>
<path d="M42.8344 89.4927C42.2357 95.0319 41.6371 98.731 41.3976 100.092C41.3644 100.289 41.2786 100.474 41.1491 100.626C41.0197 100.778 40.8514 100.893 40.6622 100.957C40.473 101.022 40.2699 101.034 40.0743 100.993C39.8788 100.951 39.6981 100.858 39.5513 100.722C38.0956 99.2855 34.3272 95.6243 31.1008 92.3537H31.0503C27.4459 92.7932 23.8071 92.8776 20.1862 92.6057C17.5798 92.4573 15.0039 91.9702 12.5234 91.1564C10.1898 90.2632 8.06856 88.8921 6.29575 87.1312C4.52294 85.3703 3.13769 83.2584 2.22874 80.9309C1.31979 78.6033 0.907179 76.1115 1.01748 73.6152C1.12778 71.119 1.75852 68.6732 2.86921 66.4349C3.24295 65.6979 3.68165 64.9956 4.18001 64.3364C4.81018 67.4179 5.07478 70.5688 5.68605 73.6629C6.39814 77.2549 7.73412 80.8847 10.4375 83.3549C13.2544 85.9323 17.218 86.8839 21.0495 87.054C24.8809 87.2241 28.6809 86.7074 32.506 86.7705C36.1232 86.8146 39.8789 87.4447 42.8344 89.4927Z" fill="#B63E96"/>
<path opacity="0.75" d="M48.0523 74.3683C47.3024 64.481 36.3313 56.8245 24.1816 60.2904C23.9677 60.3522 23.7826 60.4881 23.6596 60.6738C23.5366 60.8595 23.4836 61.0829 23.5101 61.3041C23.5366 61.5253 23.6408 61.7298 23.8042 61.8812C23.9677 62.0326 24.1796 62.1209 24.4021 62.1304C29.1221 62.3195 33.5017 62.7606 37.6356 64.9347C41.5694 67.1548 44.6482 70.6261 46.3824 74.7968C46.4648 74.9869 46.6122 75.1413 46.7983 75.2323C46.9843 75.3233 47.1967 75.3449 47.3972 75.2932C47.5978 75.2416 47.7734 75.12 47.8923 74.9505C48.0112 74.7809 48.0657 74.5745 48.046 74.3683H48.0523Z" fill="white"/>
<path d="M41.6498 74.9986C41.6695 75.6503 41.4954 76.2932 41.1496 76.8459C40.8038 77.3987 40.3019 77.8364 39.7073 78.1038C39.1127 78.3712 38.4521 78.4563 37.8091 78.3482C37.1661 78.2401 36.5697 77.9437 36.0952 77.4965C35.6207 77.0494 35.2894 76.4715 35.1433 75.8361C34.9973 75.2007 35.0432 74.5362 35.2749 73.9268C35.5066 73.3173 35.9138 72.7904 36.4451 72.4124C36.9763 72.0345 37.6077 71.8226 38.2594 71.8036C39.1325 71.7782 39.9801 72.1004 40.6158 72.6994C41.2515 73.2985 41.6234 74.1255 41.6498 74.9986Z" fill="white" stroke="#231F20" stroke-width="2" stroke-miterlimit="10"/>
<path d="M29.5128 75.3512C29.5312 76.0014 29.3563 76.6425 29.0104 77.1934C28.6646 77.7443 28.1631 78.1803 27.5695 78.4462C26.9759 78.7122 26.3168 78.7961 25.6754 78.6876C25.0341 78.579 24.4393 78.2827 23.9663 77.8362C23.4933 77.3896 23.1634 76.8128 23.0182 76.1787C22.8729 75.5447 22.9189 74.8818 23.1503 74.2739C23.3817 73.666 23.7882 73.1403 24.3183 72.7633C24.8485 72.3864 25.4785 72.1751 26.1287 72.1562C26.5607 72.1436 26.9911 72.2163 27.395 72.37C27.7989 72.5238 28.1685 72.7557 28.4827 73.0524C28.797 73.3491 29.0497 73.7049 29.2264 74.0993C29.4032 74.4937 29.5005 74.9191 29.5128 75.3512Z" fill="white" stroke="#231F20" stroke-width="2" stroke-miterlimit="10"/>
<path d="M17.3821 75.711C17.4017 76.3627 17.2277 77.0056 16.8819 77.5583C16.5361 78.1111 16.0342 78.5488 15.4396 78.8162C14.8449 79.0836 14.1843 79.1687 13.5414 79.0606C12.8984 78.9525 12.302 78.6561 11.8275 78.2089C11.353 77.7618 11.0218 77.1839 10.8758 76.5485C10.7298 75.9131 10.7755 75.2486 11.0072 74.6392C11.2389 74.0297 11.6461 73.5028 12.1773 73.1248C12.7086 72.7469 13.34 72.535 13.9917 72.516C14.8648 72.4906 15.7123 72.8128 16.3481 73.4118C16.9838 74.0109 17.3557 74.8379 17.3821 75.711Z" fill="white" stroke="#231F20" stroke-width="2" stroke-miterlimit="10"/>
<path d="M40.2382 101.005C40.5128 101.028 40.7856 100.945 41.0019 100.775C41.2182 100.604 41.3618 100.358 41.4039 100.085C41.6434 98.6864 42.2673 94.7856 42.8912 88.944L42.9291 88.881C43.1748 88.7549 43.4079 88.6289 43.6411 88.4966C49.2748 85.2575 52.2932 78.3067 51.1526 71.2173C49.8923 63.5923 44.1704 57.9838 35.7577 56.2761C34.0395 55.9255 32.301 55.6834 30.5525 55.5514C19.8396 54.7133 10.4439 57.4419 5.42146 62.792C4.41535 63.8709 3.56674 65.0865 2.90079 66.4028C1.79299 68.6421 1.16455 71.0879 1.05567 73.5839C0.946791 76.0798 1.35987 78.5709 2.26846 80.8982C3.17706 83.2254 4.56118 85.3375 6.3324 87.0994C8.10362 88.8613 10.2229 90.2343 12.5548 91.1306C15.0385 91.9394 17.6163 92.4245 20.2241 92.5737C23.8429 92.85 27.4803 92.7635 31.0819 92.3153H31.1385C34.3649 95.5796 38.1208 99.2472 39.5891 100.678C39.761 100.859 39.9904 100.975 40.2382 101.005Z" stroke="#231F20" stroke-width="2" stroke-miterlimit="10"/>
<path d="M195.165 86.7195C193.85 90.1585 191.823 93.2806 189.217 95.8807C186.61 98.4808 183.483 100.5 180.041 101.806C177.306 102.827 173.292 103.577 168.742 103.936C163.414 104.344 158.058 104.22 152.755 103.564H152.679C147.934 108.366 142.395 113.76 140.239 115.871C139.967 116.132 139.613 116.29 139.237 116.318C138.833 116.352 138.432 116.232 138.113 115.982C137.794 115.732 137.581 115.37 137.517 114.97C137.171 112.916 136.257 107.219 135.349 98.6612C135.349 98.6234 135.349 98.5982 135.349 98.5604C135.325 98.5355 135.304 98.508 135.286 98.4784L134.24 97.9176C125.947 93.1409 121.498 82.9133 123.181 72.4651C124.989 61.2418 133.453 53.0244 145.867 50.4722C148.395 49.9633 150.952 49.6098 153.523 49.4136C169.278 48.1533 183.141 52.1674 190.521 60.0697C190.867 60.4352 191.195 60.8196 191.516 61.204C192.585 62.4915 193.508 63.8926 194.27 65.382C195.919 68.6734 196.851 72.2769 197.005 75.9549C197.159 79.6328 196.532 83.3016 195.165 86.7195Z" fill="#B63E96"/>
<path d="M195.165 86.7197C193.851 90.1587 191.823 93.2809 189.217 95.8809C186.61 98.481 183.483 100.5 180.041 101.806C177.306 102.827 173.292 103.577 168.742 103.936C163.414 104.344 158.058 104.22 152.755 103.564H152.679C147.934 108.366 142.395 113.76 140.24 115.871C139.967 116.132 139.613 116.29 139.238 116.319C138.834 116.352 138.432 116.232 138.113 115.982C137.794 115.732 137.581 115.371 137.517 114.97C137.171 112.916 136.257 107.219 135.349 98.6614C139.603 95.8824 144.903 94.975 150.013 94.8804C155.584 94.7796 161.148 95.5547 166.707 95.29C172.265 95.0253 178.05 93.6579 182.146 89.9021C186.084 86.3227 188.019 81.0356 189.078 75.7989C190.054 70.9655 190.338 65.9872 191.51 61.1853C192.578 62.4728 193.502 63.8739 194.264 65.3633C195.916 68.6568 196.851 72.2634 197.006 75.9449C197.162 79.6263 196.534 83.2988 195.165 86.7197Z" fill="#903277"/>
<path opacity="0.75" d="M127.705 77.1411C128.808 62.578 144.966 51.3042 162.85 56.4149C163.164 56.507 163.435 56.7077 163.615 56.9813C163.795 57.2549 163.872 57.5836 163.832 57.9086C163.791 58.2335 163.637 58.5336 163.396 58.7552C163.155 58.9768 162.843 59.1055 162.516 59.1184C155.584 59.3956 149.125 60.0321 143.037 63.2522C133.352 68.4322 129.804 78.5023 130.163 77.7461C130.08 78.072 129.87 78.3513 129.58 78.5227C129.291 78.6941 128.945 78.7434 128.619 78.6599C128.293 78.5763 128.014 78.3666 127.843 78.0771C127.671 77.7875 127.622 77.4418 127.705 77.1159V77.1411Z" fill="white"/>
<path d="M137.133 78.061C137.105 79.0188 137.361 79.9636 137.87 80.7757C138.378 81.5879 139.116 82.231 139.99 82.6238C140.864 83.0166 141.835 83.1415 142.78 82.9826C143.725 82.8238 144.602 82.3883 145.299 81.7312C145.997 81.0742 146.484 80.2251 146.699 79.2913C146.914 78.3575 146.847 77.3808 146.508 76.4849C146.168 75.5889 145.57 74.8139 144.789 74.2577C144.009 73.7014 143.081 73.389 142.124 73.36C140.839 73.3226 139.591 73.7967 138.656 74.6781C137.72 75.5595 137.172 76.7761 137.133 78.061Z" fill="white" stroke="#231F20" stroke-width="2" stroke-miterlimit="10"/>
<path d="M154.992 78.5839C154.963 79.5418 155.22 80.4865 155.728 81.2987C156.237 82.1108 156.975 82.754 157.849 83.1468C158.723 83.5396 159.694 83.6645 160.639 83.5056C161.584 83.3467 162.461 82.9113 163.158 82.2542C163.856 81.5972 164.343 80.7481 164.558 79.8143C164.773 78.8805 164.706 77.9039 164.366 77.0079C164.027 76.1119 163.429 75.3368 162.648 74.7806C161.868 74.2244 160.941 73.912 159.983 73.8829C158.698 73.8456 157.451 74.3196 156.515 75.201C155.579 76.0824 155.031 77.2991 154.992 78.5839Z" fill="white" stroke="#231F20" stroke-width="2" stroke-miterlimit="10"/>
<path d="M172.857 79.1136C172.83 80.0715 173.087 81.0159 173.597 81.8274C174.107 82.639 174.846 83.2812 175.72 83.6729C176.595 84.0646 177.566 84.1882 178.511 84.0281C179.455 83.868 180.331 83.4313 181.028 82.7734C181.725 82.1154 182.211 81.2658 182.425 80.3316C182.639 79.3975 182.571 78.421 182.23 77.5254C181.889 76.6299 181.29 75.8556 180.509 75.3004C179.728 74.7452 178.799 74.4341 177.842 74.4063C177.205 74.387 176.571 74.4935 175.975 74.7198C175.38 74.9461 174.835 75.2877 174.372 75.7251C173.909 76.1624 173.537 76.6869 173.277 77.2683C173.017 77.8498 172.874 78.4769 172.857 79.1136Z" fill="white" stroke="#231F20" stroke-width="2" stroke-miterlimit="10"/>
<path d="M139.212 116.35C138.809 116.382 138.409 116.261 138.091 116.011C137.774 115.761 137.562 115.401 137.498 115.002C137.145 112.935 136.238 107.194 135.305 98.6171C135.286 98.5891 135.269 98.5596 135.255 98.5289C134.889 98.3462 134.543 98.1571 134.202 97.9617C125.909 93.1851 121.46 82.9638 123.143 72.5219C124.952 61.2986 133.421 53.075 145.829 50.5291C148.36 50.0119 150.922 49.6541 153.498 49.4578C169.252 48.1974 183.116 52.2116 190.483 60.1265C191.99 61.7057 193.263 63.4925 194.264 65.4325C195.896 68.7284 196.821 72.3287 196.982 76.0029C197.143 79.6771 196.535 83.3444 195.198 86.7703C193.86 90.1962 191.822 93.3053 189.215 95.8986C186.607 98.492 183.487 100.512 180.053 101.831C177.331 102.846 173.317 103.602 168.761 103.961C163.435 104.367 158.081 104.241 152.78 103.583H152.698C147.953 108.391 142.42 113.792 140.258 115.896C139.975 116.168 139.604 116.329 139.212 116.35Z" stroke="#231F20" stroke-width="2" stroke-miterlimit="10"/>
<path d="M140.813 141.33V165.68C140.813 167.351 140.149 168.954 138.967 170.135C137.785 171.317 136.183 171.981 134.511 171.981H88.2002C86.5289 171.981 84.9261 171.317 83.7443 170.135C82.5625 168.954 81.8985 167.351 81.8985 165.68V141.33C81.8996 140.179 81.9944 139.031 82.1821 137.895C82.996 133.023 85.5112 128.596 89.2806 125.403C93.0499 122.209 97.8294 120.455 102.77 120.452H119.98C125.51 120.462 130.809 122.667 134.716 126.581C138.622 130.495 140.815 135.8 140.813 141.33Z" fill="#903277"/>
<path d="M129.413 149.144V172H88.1813C86.51 172 84.9072 171.336 83.7254 170.154C82.5436 168.972 81.8796 167.37 81.8796 165.698V141.349C81.8807 140.198 81.9756 139.049 82.1633 137.914C83.9527 135.395 86.3196 133.341 89.0661 131.924C91.8126 130.507 94.8586 129.77 97.9489 129.772H110.048C115.183 129.779 120.106 131.822 123.736 135.454C127.367 139.085 129.408 144.009 129.413 149.144Z" fill="#B63E96"/>
<path d="M127.17 104.622C127.17 107.755 126.241 110.816 124.501 113.421C122.761 116.025 120.288 118.055 117.394 119.253C114.5 120.452 111.316 120.765 108.244 120.154C105.172 119.543 102.351 118.035 100.136 115.82C97.9212 113.606 96.413 110.784 95.8019 107.712C95.1909 104.64 95.5044 101.456 96.703 98.5623C97.9016 95.6686 99.9314 93.1953 102.536 91.4552C105.14 89.7151 108.202 88.7864 111.334 88.7864C113.413 88.7864 115.473 89.1959 117.394 89.9918C119.315 90.7876 121.061 91.9541 122.532 93.4246C124.002 94.8952 125.169 96.641 125.964 98.5623C126.76 100.484 127.17 102.543 127.17 104.622Z" fill="#F0D2A0" stroke="#231F20" stroke-width="2" stroke-miterlimit="10"/>
<path d="M121.574 103.324C121.573 104.786 121.138 106.215 120.325 107.429C119.512 108.644 118.357 109.591 117.006 110.149C115.656 110.708 114.17 110.853 112.736 110.567C111.303 110.281 109.986 109.577 108.953 108.543C107.92 107.509 107.216 106.192 106.932 104.758C106.647 103.324 106.794 101.838 107.353 100.488C107.913 99.1377 108.861 97.9836 110.076 97.1716C111.292 96.3597 112.72 95.9263 114.182 95.9263C115.153 95.9263 116.115 96.1177 117.012 96.4896C117.91 96.8615 118.725 97.4065 119.411 98.0935C120.098 98.7806 120.642 99.5962 121.013 100.494C121.384 101.391 121.575 102.353 121.574 103.324Z" fill="#FFEBB6"/>
<path d="M140.813 141.33V165.68C140.813 167.351 140.149 168.954 138.967 170.135C137.785 171.317 136.183 171.981 134.511 171.981H88.2002C86.5289 171.981 84.9261 171.317 83.7443 170.135C82.5625 168.954 81.8985 167.351 81.8985 165.68V141.33C81.8996 140.179 81.9944 139.031 82.1821 137.895C82.996 133.023 85.5112 128.596 89.2806 125.403C93.0499 122.209 97.8294 120.455 102.77 120.452H119.98C125.51 120.462 130.809 122.667 134.716 126.581C138.622 130.495 140.815 135.8 140.813 141.33Z" stroke="black" stroke-width="2" stroke-miterlimit="10"/>
<path d="M117.541 33.6974C117.325 32.3553 117.005 31.0322 116.583 29.74L122.885 24.2323L113.104 10.8034L105.958 15.0697C104.857 14.2779 103.698 13.5681 102.493 12.946L103.028 4.62775L94.4138 3.26034L86.6374 2L84.5831 10.085C83.248 10.3092 81.9299 10.625 80.6382 11.0303L75.1369 4.7286L70.9211 7.7849L61.7016 14.4899L65.9553 21.6486C65.1699 22.7499 64.4645 23.9061 63.8443 25.1082L55.5135 24.5663L52.9171 40.9506L60.9959 43.005C61.2171 44.3339 61.5309 45.6457 61.9349 46.9309L55.6774 52.4386L65.4323 65.8864L72.5973 61.6202C73.6984 62.4096 74.8545 63.1193 76.0569 63.7438L75.515 72.062L80.5564 72.856L84.1609 73.4232L90.116 74.3747L91.9497 74.6646L93.9914 66.5796C95.331 66.357 96.6534 66.0411 97.9489 65.6343L101.875 70.1211L103.438 71.9045L110.502 66.7749L116.867 62.1432L112.6 54.9845C113.395 53.8788 114.111 52.7185 114.743 51.5122L123.061 52.0668L124.12 45.4186L125.657 35.6572L117.541 33.6974ZM105.668 40.9885C104.979 45.3016 102.618 49.1695 99.0977 51.7549C95.5771 54.3402 91.1798 55.4348 86.858 54.8017H86.6627C82.3719 54.0694 78.5404 51.6816 75.9927 48.1522C73.4451 44.6229 72.3851 40.2344 73.041 35.9314C73.6969 31.6283 76.0163 27.7548 79.4997 25.1448C82.9832 22.5348 87.3521 21.397 91.6662 21.9763H91.8552C96.2074 22.6673 100.107 25.0581 102.697 28.6231C105.287 32.1882 106.356 36.6358 105.668 40.9885Z" fill="#FDC00F"/>
<path d="M125.62 35.7705L124.082 45.5255C118.976 46.5618 113.711 46.5296 108.618 45.431C107.332 45.1705 106.034 44.8533 104.723 44.4794C105.166 43.365 105.483 42.2046 105.668 41.0198C106.356 36.6671 105.287 32.2196 102.697 28.6545C100.107 25.0895 96.2073 22.6987 91.8552 22.0077H91.6661C89.1856 21.6339 86.6528 21.8275 84.258 22.5741C81.8632 23.3207 79.6689 24.6008 77.8403 26.318C76.9463 25.1461 76.1174 23.9259 75.3575 22.663C72.4209 17.754 70.8454 12.6308 70.9084 7.83523L75.1116 4.77885L80.6193 11.0805C81.911 10.6752 83.229 10.3594 84.5641 10.1353L86.6185 2.04395L94.3948 3.30428L103.015 4.67177L102.474 12.99C103.678 13.6144 104.836 14.3241 105.94 15.1136L113.092 10.8474L122.866 24.2826L116.564 29.7839C116.982 31.075 117.303 32.3958 117.522 33.7351L125.62 35.7705Z" fill="#FDD00F"/>
<path d="M117.541 33.6911C117.322 32.3518 117.001 31.0311 116.583 29.74L122.885 24.2386L113.13 10.8034L105.977 15.0697C104.874 14.2801 103.716 13.5705 102.511 12.946L103.053 4.62775L94.4327 3.26034L86.6563 2L84.602 10.0913C83.2669 10.3155 81.9488 10.6313 80.6571 11.0366L75.1495 4.73491L70.9463 7.7912L61.7206 14.4962L65.9742 21.6549C65.1897 22.7568 64.4843 23.9129 63.8632 25.1145L55.5324 24.5663L52.9361 40.9506L61.0212 42.9987C61.2358 44.3304 61.5475 45.6447 61.9538 46.9309L55.6963 52.4386L65.4576 65.8864L72.6162 61.6139C73.7169 62.409 74.8755 63.121 76.0821 63.7438L75.5339 72.0557L84.1546 73.4295L91.9434 74.6583L93.9853 66.5859C95.3236 66.3573 96.6454 66.0416 97.9426 65.6406L103.431 71.9423L116.86 62.181L112.594 55.016C113.39 53.9131 114.106 52.7548 114.737 51.5501L123.055 52.0983L124.113 45.45L125.651 35.695L117.541 33.6911ZM86.858 54.8017C86.7887 54.8017 86.7257 54.8017 86.6627 54.8017C84.5069 54.4732 82.4369 53.7232 80.571 52.5947C78.705 51.4662 77.0797 49.9813 75.7876 48.2246C74.4956 46.468 73.5623 44.474 73.0408 42.3566C72.5194 40.2392 72.42 38.0399 72.7485 35.8841C73.077 33.7284 73.827 31.6584 74.9555 29.7925C76.084 27.9265 77.5691 26.3011 79.3257 25.009C82.8735 22.3996 87.3124 21.3065 91.6661 21.97H91.8552C96.2074 22.661 100.107 25.0518 102.697 28.6168C105.287 32.1819 106.356 36.6295 105.668 40.9822C105.483 42.167 105.166 43.3274 104.723 44.4418C103.355 47.9342 100.844 50.86 97.5998 52.7415C94.3552 54.623 90.5686 55.3493 86.858 54.8017Z" stroke="#231F20" stroke-width="2" stroke-miterlimit="10"/>
<path d="M89.2652 48.6072C94.9172 48.6072 99.4993 44.0254 99.4993 38.3733C99.4993 32.7213 94.9172 28.1394 89.2652 28.1394C83.6131 28.1394 79.0313 32.7213 79.0313 38.3733C79.0313 44.0254 83.6131 48.6072 89.2652 48.6072Z" fill="#FDC00F" stroke="#231F20" stroke-width="2" stroke-miterlimit="10"/>
<path d="M95.5544 37.535C95.5544 40.0116 92.75 42.0155 89.2967 42.0155C85.8434 42.0155 83.0329 40.0116 83.0329 37.535C83.0329 35.0585 85.8371 33.0608 89.2967 33.0608C92.7563 33.0608 95.5544 35.0648 95.5544 37.535Z" fill="#FDED0F"/>
<path d="M169.927 34.8949C169.928 34.2051 169.724 33.5305 169.342 32.9565C168.96 32.3824 168.415 31.9348 167.778 31.6703C167.141 31.4058 166.44 31.3362 165.764 31.4705C165.087 31.6047 164.466 31.9367 163.978 32.4245C163.49 32.9122 163.158 33.5337 163.024 34.2103C162.889 34.8869 162.959 35.5881 163.224 36.2251C163.488 36.8621 163.936 37.4063 164.51 37.7887C165.084 38.1712 165.759 38.3747 166.448 38.3735C167.37 38.3718 168.254 38.0047 168.906 37.3527C169.558 36.7007 169.925 35.817 169.927 34.8949Z" fill="#605CED" stroke="#231F20" stroke-width="2" stroke-miterlimit="10"/>
<path d="M35.1514 33.9728L28.9131 40.2112L35.1514 46.4495L41.3898 40.2112L35.1514 33.9728Z" fill="#FFEF10" stroke="#231F20" stroke-width="2" stroke-miterlimit="10"/>
<path d="M142.703 17.9934V29.223" stroke="#231F20" stroke-width="2" stroke-linecap="round" stroke-linejoin="round"/>
<path d="M148.249 23.7156H137.133" stroke="#231F20" stroke-width="2" stroke-linecap="round" stroke-linejoin="round"/>
<path d="M60.5738 165.257C60.5751 164.568 60.3715 163.893 59.989 163.319C59.6066 162.745 59.0625 162.297 58.4255 162.033C57.7884 161.768 57.0872 161.699 56.4106 161.833C55.7341 161.967 55.1125 162.299 54.6248 162.787C54.137 163.275 53.805 163.896 53.6707 164.573C53.5365 165.249 53.6061 165.951 53.8706 166.588C54.1351 167.225 54.5827 167.769 55.1568 168.151C55.7308 168.534 56.4055 168.737 57.0953 168.736C58.0173 168.734 58.901 168.367 59.553 167.715C60.205 167.063 60.5722 166.18 60.5738 165.257Z" fill="#605CED" stroke="#231F20" stroke-width="2" stroke-miterlimit="10"/>
<path d="M169.553 132.415L163.314 138.653L169.553 144.892L175.791 138.653L169.553 132.415Z" fill="#FFC83C" stroke="#231F20" stroke-width="2" stroke-miterlimit="10"/>
<path d="M24.6856 125.166V136.396" stroke="#231F20" stroke-width="2" stroke-linecap="round" stroke-linejoin="round"/>
<path d="M30.2374 130.888H19.1213" stroke="#231F20" stroke-width="2" stroke-linecap="round" stroke-linejoin="round"/>
</svg>
