<svg width="180" height="182" viewBox="0 0 180 182" fill="none" xmlns="http://www.w3.org/2000/svg">
<path d="M123.685 127.884C122.059 130.931 121.437 134.411 121.909 137.83C121.924 140.002 121.478 142.152 120.599 144.14C119.721 146.127 118.43 147.907 116.812 149.362C116.227 148.762 115.528 148.285 114.756 147.957C113.983 147.63 113.153 147.46 112.314 147.457L64.6568 147.144C63.8039 147.136 62.9581 147.3 62.1706 147.626C61.3831 147.953 60.6702 148.435 60.0752 149.044C58.5379 147.591 57.3172 145.838 56.4893 143.895C55.6613 141.951 55.2438 139.859 55.2628 137.747C55.7304 134.329 55.1093 130.85 53.487 127.802C44.821 110.984 27.9864 106.106 28.0337 73.3311C28.0811 39.8665 55.2628 17.8281 88.719 17.8812C122.175 17.9343 149.298 40.0376 149.25 73.4963C149.238 106.259 132.386 111.084 123.685 127.884Z" fill="#FFE03C"/>
<path d="M123.679 127.884C122.062 130.934 121.441 134.411 121.903 137.83C121.903 150.566 107.945 157.662 88.5711 157.638C85.3294 157.644 82.0913 157.422 78.8812 156.972C92.9752 154.943 102.381 148.277 102.393 137.83C101.922 134.411 102.543 130.931 104.169 127.884C112.876 111.09 129.717 106.259 129.752 73.4785C129.799 43.3114 107.756 22.3702 78.893 18.5064C82.1562 18.0731 85.4449 17.8582 88.7369 17.8634C122.211 17.9106 149.31 40.0198 149.274 73.4785C149.239 106.259 132.38 111.084 123.679 127.884Z" fill="#F7A61B"/>
<path d="M123.685 127.884C122.059 130.931 121.437 134.411 121.909 137.83C121.924 140.002 121.478 142.152 120.599 144.14C119.721 146.127 118.43 147.907 116.812 149.362C116.227 148.762 115.528 148.285 114.756 147.957C113.983 147.63 113.153 147.46 112.314 147.457L64.6568 147.144C63.8039 147.136 62.9581 147.3 62.1706 147.626C61.3831 147.953 60.6702 148.435 60.0752 149.044C58.5379 147.591 57.3172 145.838 56.4893 143.895C55.6613 141.951 55.2438 139.859 55.2628 137.747C55.7304 134.329 55.1093 130.85 53.487 127.802C44.821 110.984 27.9864 106.106 28.0337 73.3311C28.0811 39.8665 55.2628 17.8281 88.719 17.8812C122.175 17.9343 149.298 40.0376 149.25 73.4963C149.238 106.259 132.386 111.084 123.685 127.884Z" stroke="black" stroke-width="2" stroke-miterlimit="10"/>
<g style="mix-blend-mode:overlay">
<path d="M66.1366 54.7137C58.992 62.7008 49.7282 66.0928 45.4544 62.2939C41.1806 58.495 43.501 48.9387 50.6456 40.9516C57.7903 32.9645 67.0482 29.5666 71.3279 33.3714C75.6076 37.1762 73.2813 46.7206 66.1366 54.7137Z" fill="white"/>
</g>
<g style="mix-blend-mode:overlay">
<path d="M44.1515 74.4585C45.9527 71.9531 45.3576 68.4547 42.8223 66.6446C40.2871 64.8345 36.7718 65.3981 34.9706 67.9034C33.1694 70.4088 33.7644 73.907 36.2997 75.7172C38.8349 77.5273 42.3503 76.9638 44.1515 74.4585Z" fill="white"/>
</g>
<path d="M64.4378 180.691L112.089 180.998C113.703 181.038 115.268 180.44 116.442 179.335C117.616 178.23 118.305 176.708 118.357 175.099C118.328 173.489 117.66 171.955 116.5 170.833C115.34 169.712 113.782 169.093 112.166 169.112L64.5148 168.799C62.9003 168.759 61.3356 169.357 60.1614 170.462C58.9872 171.567 58.2988 173.09 58.2462 174.698C58.2758 176.309 58.9433 177.843 60.1031 178.966C61.2629 180.089 62.821 180.709 64.4378 180.691Z" fill="#C34CA3"/>
<path d="M64.5149 168.787L82.5157 168.905C81.4546 169.497 80.5681 170.356 79.9448 171.397C79.3215 172.437 78.9833 173.622 78.964 174.834C78.9685 176.045 79.291 177.234 79.8996 178.282C80.5081 179.33 81.3815 180.202 82.4328 180.809L64.432 180.691C63.6253 180.722 62.8208 180.589 62.0671 180.301C61.3133 180.013 60.6258 179.576 60.0462 179.016C59.4665 178.456 59.0067 177.785 58.6944 177.043C58.382 176.301 58.2237 175.504 58.2289 174.699C58.2341 173.895 58.4027 173.1 58.7246 172.362C59.0465 171.624 59.515 170.959 60.1019 170.407C60.6887 169.854 61.3817 169.426 62.1391 169.148C62.8965 168.869 63.7027 168.747 64.509 168.787H64.5149Z" fill="#E47AC7"/>
<g style="mix-blend-mode:multiply" opacity="0.5">
<path d="M58.9033 172.091L117.73 172.474C117.429 171.876 117.029 171.334 116.546 170.87C115.369 169.74 113.8 169.106 112.166 169.1L64.503 168.787C63.3554 168.773 62.226 169.074 61.2383 169.656C60.2507 170.239 59.4429 171.081 58.9033 172.091Z" fill="#A3A6A8"/>
</g>
<path d="M58.3172 163.88C58.3142 164.665 58.4698 165.444 58.7749 166.168C59.08 166.893 59.5283 167.549 60.093 168.097C61.2698 169.231 62.8424 169.866 64.4793 169.867L112.136 170.18C113.75 170.216 115.313 169.618 116.486 168.513C117.66 167.409 118.349 165.888 118.405 164.281C118.407 163.372 118.192 162.476 117.777 161.667C117.478 161.07 117.078 160.53 116.593 160.069C115.414 158.943 113.846 158.31 112.213 158.299L64.5503 157.987C63.4012 157.973 62.2704 158.274 61.2817 158.858C60.293 159.441 59.4844 160.285 58.9447 161.296C58.5323 162.095 58.3173 162.981 58.3172 163.88Z" fill="#C34CA3"/>
<path d="M64.5918 157.968L82.5926 158.086C81.5327 158.68 80.6472 159.539 80.024 160.579C79.4009 161.619 79.062 162.804 79.041 164.015C79.0476 165.225 79.3718 166.413 79.9813 167.46C80.5908 168.508 81.4645 169.378 82.5156 169.985L64.5149 169.867C63.7153 169.886 62.9199 169.745 62.1759 169.453C61.432 169.16 60.7546 168.721 60.184 168.163C59.6134 167.604 59.1612 166.937 58.8542 166.201C58.5472 165.465 58.3916 164.675 58.3968 163.878C58.4019 163.081 58.5677 162.293 58.8842 161.561C59.2007 160.829 59.6615 160.168 60.2393 159.617C60.8171 159.066 61.5001 158.636 62.2478 158.353C62.9954 158.069 63.7925 157.939 64.5918 157.968Z" fill="#E47AC7"/>
<g style="mix-blend-mode:multiply" opacity="0.5">
<path d="M58.9743 161.278L117.801 161.655C117.502 161.058 117.101 160.518 116.617 160.057C115.437 158.931 113.87 158.298 112.237 158.287L64.574 157.975C63.4265 157.961 62.2973 158.262 61.3098 158.845C60.3223 159.427 59.5144 160.269 58.9743 161.278Z" fill="#A3A6A8"/>
</g>
<path d="M118.499 153.397V153.445C118.442 155.052 117.752 156.571 116.579 157.675C115.406 158.779 113.844 159.379 112.231 159.343L64.574 159.025C62.9668 159.043 61.4172 158.429 60.2598 157.318C59.1024 156.206 58.4302 154.686 58.3883 153.085V153.038C58.4012 151.53 59.0069 150.088 60.0753 149.02C60.6703 148.411 61.3832 147.929 62.1707 147.603C62.9582 147.276 63.804 147.112 64.6569 147.121L112.314 147.434C113.153 147.437 113.983 147.607 114.756 147.934C115.528 148.261 116.228 148.739 116.812 149.339C117.348 149.871 117.773 150.504 118.063 151.2C118.352 151.897 118.501 152.643 118.499 153.397Z" fill="#C34CA3"/>
<path d="M64.6569 147.144L82.6577 147.262C81.5982 147.856 80.713 148.715 80.0899 149.755C79.4669 150.795 79.1277 151.98 79.1061 153.191C79.1129 154.402 79.4371 155.591 80.0465 156.639C80.6559 157.687 81.5295 158.558 82.5807 159.166L64.5799 159.048C63.7732 159.079 62.9688 158.946 62.215 158.658C61.4613 158.37 60.7738 157.933 60.1941 157.373C59.6145 156.813 59.1546 156.142 58.8423 155.4C58.53 154.658 58.3716 153.861 58.3768 153.056C58.382 152.252 58.5507 151.457 58.8726 150.719C59.1945 149.981 59.663 149.316 60.2498 148.764C60.8367 148.211 61.5296 147.783 62.2871 147.505C63.0445 147.226 63.8507 147.104 64.6569 147.144Z" fill="#E47AC7"/>
<path d="M27.6254 138.98C21.4634 138.827 16.6923 137.269 13.7623 134.172C11.2406 131.506 10.2106 127.949 10.6605 123.602C12.383 107.356 35.6165 81.265 68.463 58.6662C111.047 29.3721 153.779 16.3356 165.73 28.977C168.252 31.6433 169.282 35.2003 168.838 39.5537C167.109 55.7935 143.882 81.8845 111.035 104.483C78.8752 126.604 46.6325 139.458 27.6254 138.98Z" stroke="#231F20" stroke-width="2" stroke-miterlimit="10"/>
<path d="M151.529 137.128C132.155 136.638 101.215 124.952 69.8008 105.102C35.3679 83.3236 10.6072 57.8285 8.20395 41.6654C7.5765 37.4654 8.43484 33.9968 10.7493 31.2951C21.9961 18.3174 65.4263 30.0445 109.697 58.0467C144.124 79.8315 168.891 105.321 171.259 121.484C171.886 125.684 171.034 129.152 168.719 131.854C165.481 135.641 159.485 137.328 151.529 137.128Z" stroke="#231F20" stroke-width="2" stroke-miterlimit="10"/>
<path d="M170.211 141.995C167.547 142.734 164.714 142.593 162.137 141.593C159.56 140.594 157.377 138.789 155.915 136.45C154.553 134.308 153.908 131.79 154.075 129.259C154.59 120.947 163.297 115.255 171.116 118.322C171.365 118.417 171.602 118.523 171.844 118.623C173.134 119.216 174.308 120.031 175.313 121.03C181.641 127.23 179.729 139.216 170.211 141.995Z" fill="#8D8AF3"/>
<path d="M170.211 141.994C167.547 142.733 164.714 142.593 162.137 141.593C159.56 140.593 157.377 138.789 155.916 136.45C157.826 136.955 159.788 137.246 161.764 137.317C164.872 137.376 168.068 136.65 170.56 134.81C174.65 131.789 176.183 126.15 175.337 121.148C175.334 121.108 175.334 121.069 175.337 121.03C181.641 127.23 179.729 139.216 170.211 141.994Z" fill="#605CED"/>
<g style="mix-blend-mode:soft-light">
<path d="M170.08 121.218C169.63 120.442 168.903 119.863 168.044 119.596C163.528 117.915 157.484 121.437 156.987 126.038C156.9 126.683 157.022 127.338 157.335 127.909C157.648 128.48 158.136 128.936 158.727 129.211C160.219 129.872 162.054 129.436 163.463 128.828C165.503 127.907 167.33 126.573 168.826 124.911C169.725 123.961 170.702 122.528 170.08 121.218Z" fill="white"/>
</g>
<path d="M27.2998 114.322C24.6373 115.062 21.8057 114.923 19.2296 113.924C16.6534 112.926 14.4714 111.122 13.0105 108.783C11.6492 106.641 11.0028 104.124 11.1637 101.592C11.6846 93.275 20.3861 87.5827 28.2114 90.6501L28.9395 90.9567C30.2282 91.5475 31.4008 92.3625 32.4023 93.3635C38.736 99.5574 36.8241 111.55 27.2998 114.322Z" fill="#FF403C"/>
<path d="M27.2997 114.323C24.6372 115.063 21.8056 114.923 19.2295 113.924C16.6533 112.926 14.4713 111.122 13.0104 108.784C14.9209 109.29 16.8829 109.579 18.8587 109.645C21.9866 109.794 25.077 108.915 27.6549 107.144C31.7451 104.123 33.2783 98.484 32.4259 93.4758C32.4287 93.4385 32.4287 93.4011 32.4259 93.3638C38.7359 99.5576 36.824 111.55 27.2997 114.323Z" fill="#D32D24"/>
<g style="mix-blend-mode:soft-light">
<path d="M27.1755 93.5523C26.7263 92.7727 25.9961 92.1927 25.1333 91.9301C20.6169 90.243 14.5792 93.7705 14.0819 98.3716C13.9943 99.0165 14.1159 99.6723 14.4291 100.243C14.7422 100.814 15.2303 101.271 15.8222 101.545C17.3139 102.206 19.1429 101.769 20.5577 101.162C22.5988 100.239 24.4251 98.9029 25.9206 97.2391C26.8204 96.2894 27.7971 94.8618 27.1755 93.5523Z" fill="white"/>
</g>
<path d="M93.4367 25.5143C90.7741 26.2554 87.9423 26.1161 85.3659 25.1174C82.7895 24.1187 80.6076 22.3145 79.1473 19.9753C77.7833 17.8315 77.1367 15.3118 77.3005 12.7786C77.8155 4.46706 86.5229 -1.22542 94.3424 1.84202C94.591 1.9364 94.8336 2.04259 95.0704 2.14287C96.3597 2.73566 97.5339 3.55029 98.5392 4.54953C104.843 10.7493 102.955 22.7359 93.4367 25.5143Z" fill="#C34CA3" stroke="#231F20" stroke-width="2" stroke-miterlimit="10"/>
<g style="mix-blend-mode:soft-light">
<path d="M93.4367 25.5141C90.7741 26.2552 87.9423 26.1159 85.3659 25.1172C82.7895 24.1185 80.6076 22.3143 79.1473 19.9751C81.0563 20.4791 83.0161 20.768 84.9897 20.8363C88.0974 20.8953 91.2939 20.1697 93.7918 18.3293C97.8762 15.309 99.4152 9.6697 98.5629 4.66741C98.5601 4.62813 98.5601 4.58859 98.5629 4.54932C104.843 10.7491 102.955 22.7357 93.4367 25.5141Z" fill="#29428E"/>
</g>
<g style="mix-blend-mode:soft-light">
<path d="M93.3125 4.73816C92.8587 3.96245 92.1303 3.38384 91.2703 3.11596C86.7538 1.43476 80.7102 4.95637 80.213 9.55754C80.1263 10.2022 80.2484 10.8578 80.5614 11.4286C80.8744 11.9994 81.362 12.4557 81.9532 12.7312C83.4449 13.3919 85.2799 12.9553 86.6887 12.3536C88.7304 11.4286 90.5583 10.0931 92.0576 8.43089C92.9515 7.48117 93.9281 6.04772 93.3125 4.73816Z" fill="white"/>
</g>
<path d="M95.8341 101.416C86.5467 104.135 76.9928 99.8172 72.2337 92.2666C69.984 88.7267 68.9168 84.5677 69.1852 80.3861C70.0376 66.6593 84.4157 57.2565 97.3318 62.3237C97.7461 62.4829 98.1427 62.6539 98.5156 62.825C100.643 63.8031 102.58 65.1469 104.24 66.7949C114.717 77.0296 111.562 96.8383 95.8341 101.416Z" fill="#ED3C72"/>
<path d="M95.8342 101.416C86.5468 104.135 76.9929 99.8171 72.2338 92.2665C75.3904 93.0997 78.6307 93.5785 81.8941 93.694C87.0203 93.7943 92.2945 92.5968 96.4202 89.5647C103.174 84.5801 105.708 75.2657 104.299 67.0014C104.299 66.9424 104.299 66.8656 104.263 66.8066C114.717 77.0295 111.562 96.8382 95.8342 101.416Z" fill="#E01954"/>
<path d="M97.3672 72.0333C96.7753 70.7709 95.3961 69.8684 93.9991 69.3493C86.5348 66.5709 76.5607 72.3931 75.7379 79.9673C75.5967 81.0326 75.7995 82.115 76.3167 83.0578C76.8338 84.0006 77.6387 84.7548 78.6147 85.2114C81.0771 86.3027 84.1019 85.5832 86.4578 84.5803C89.8358 83.0523 92.8591 80.8429 95.3368 78.0915C96.7812 76.5578 98.3913 74.1982 97.3672 72.0333Z" fill="#EF6692"/>
<path d="M32.2426 150.359C41.8142 149.822 47.0409 147.876 47.0409 147.876" stroke="#231F20" stroke-width="2" stroke-miterlimit="10"/>
<path d="M1.70453 122.292C1.70453 122.292 -1.30249 132.674 5.12593 140.779C10.0627 147.014 17.3198 149.539 24.5473 150.218" stroke="#231F20" stroke-width="2" stroke-miterlimit="10"/>
<path d="M141.04 15.4624C141.04 15.4624 130.977 16.1173 123.732 20.9013" stroke="#231F20" stroke-width="2" stroke-miterlimit="10"/>
<path d="M173.662 99.1802C175.315 101.667 176.636 104.358 177.592 107.185" stroke="#231F20" stroke-width="2" stroke-miterlimit="10"/>
<path d="M155.916 77.2124C155.916 77.2124 165.298 87.4292 171.898 96.142" stroke="#231F20" stroke-width="2" stroke-miterlimit="10"/>
<path d="M46.1886 10.6667C46.1886 11.4449 46.4201 12.2056 46.8539 12.8526C47.2878 13.4996 47.9044 14.004 48.6259 14.3018C49.3473 14.5996 50.1412 14.6775 50.907 14.5256C51.6729 14.3738 52.3764 13.9991 52.9286 13.4488C53.4808 12.8986 53.8568 12.1976 54.0091 11.4343C54.1615 10.6711 54.0833 9.87997 53.7845 9.16102C53.4856 8.44207 52.9796 7.82757 52.3303 7.39523C51.681 6.96289 50.9176 6.73218 50.1368 6.73218C49.0896 6.73218 48.0854 7.14672 47.345 7.8846C46.6046 8.62248 46.1886 9.6232 46.1886 10.6667Z" fill="#ED3C72" stroke="#231F20" stroke-width="2" stroke-miterlimit="10"/>
<path d="M126.745 147.876C126.745 148.654 126.977 149.415 127.41 150.062C127.844 150.709 128.461 151.213 129.182 151.511C129.904 151.809 130.698 151.887 131.464 151.735C132.229 151.583 132.933 151.208 133.485 150.658C134.037 150.108 134.413 149.407 134.566 148.643C134.718 147.88 134.64 147.089 134.341 146.37C134.042 145.651 133.536 145.037 132.887 144.604C132.237 144.172 131.474 143.941 130.693 143.941C129.646 143.941 128.642 144.356 127.901 145.094C127.161 145.831 126.745 146.832 126.745 147.876Z" fill="#6DCE2A"/>
<path d="M126.745 147.876C126.745 148.654 126.977 149.415 127.41 150.062C127.844 150.709 128.461 151.213 129.182 151.511C129.904 151.809 130.698 151.887 131.464 151.735C132.229 151.583 132.933 151.208 133.485 150.658C134.037 150.108 134.413 149.407 134.566 148.643C134.718 147.88 134.64 147.089 134.341 146.37C134.042 145.651 133.536 145.037 132.887 144.604C132.237 144.172 131.474 143.941 130.693 143.941C129.646 143.941 128.642 144.356 127.901 145.094C127.161 145.831 126.745 146.832 126.745 147.876Z" stroke="#231F20" stroke-width="2" stroke-miterlimit="10"/>
<path d="M1 80.5808C1 81.359 1.23159 82.1196 1.66542 82.7667C2.09926 83.4137 2.71589 83.9181 3.43733 84.2159C4.15877 84.5137 4.95263 84.5915 5.7185 84.4397C6.48438 84.2879 7.18789 83.9132 7.74006 83.3629C8.29223 82.8126 8.66826 82.1116 8.8206 81.3484C8.97295 80.5852 8.89471 79.794 8.59588 79.0751C8.29705 78.3561 7.79105 77.7416 7.14177 77.3093C6.49249 76.877 5.72912 76.6462 4.94824 76.6462C3.90111 76.6462 2.89685 77.0606 2.15641 77.7985C1.41598 78.5364 1 79.5373 1 80.5808Z" fill="#8D8AF3" stroke="#231F20" stroke-width="2" stroke-miterlimit="10"/>
<path d="M95.8341 101.416C86.5467 104.135 76.9928 99.8172 72.2337 92.2666C69.984 88.7267 68.9168 84.5677 69.1852 80.3861C70.0376 66.6593 84.4157 57.2565 97.3318 62.3237C97.7461 62.4829 98.1427 62.6539 98.5156 62.825C100.643 63.8031 102.58 65.1469 104.24 66.7949C114.717 77.0296 111.562 96.8383 95.8341 101.416Z" stroke="black" stroke-width="2" stroke-linejoin="round"/>
<path d="M27.2998 114.322C24.6373 115.062 21.8057 114.923 19.2296 113.924C16.6534 112.926 14.4714 111.122 13.0105 108.783C11.6492 106.641 11.0028 104.124 11.1637 101.592C11.6846 93.275 20.3861 87.5827 28.2114 90.6501L28.9395 90.9567C30.2282 91.5475 31.4008 92.3625 32.4023 93.3635C38.736 99.5574 36.8241 111.55 27.2998 114.322Z" stroke="#231F20" stroke-width="2" stroke-miterlimit="10"/>
<path d="M170.211 141.995C167.547 142.734 164.714 142.593 162.137 141.593C159.56 140.594 157.377 138.789 155.915 136.45C154.553 134.308 153.908 131.79 154.075 129.259C154.59 120.947 163.297 115.255 171.116 118.322C171.365 118.417 171.602 118.523 171.844 118.623C173.134 119.216 174.308 120.031 175.313 121.03C181.641 127.23 179.729 139.216 170.211 141.995Z" stroke="black" stroke-width="2" stroke-linejoin="round"/>
<path d="M144.302 180.998H152.4" stroke="#231F20" stroke-width="2" stroke-miterlimit="10"/>
<path d="M39.6299 180.998H139.774" stroke="#231F20" stroke-width="2" stroke-miterlimit="10"/>
<path d="M24.3401 180.998H35.1074" stroke="#231F20" stroke-width="2" stroke-miterlimit="10"/>
<path d="M118.357 175.04V175.087C118.303 176.695 117.614 178.217 116.44 179.322C115.267 180.426 113.703 181.025 112.089 180.986L64.4319 180.674C62.8242 180.69 61.2745 180.075 60.1173 178.963C58.9601 177.851 58.2881 176.329 58.2462 174.728V174.68C58.2706 173.525 58.6316 172.401 59.2853 171.446C59.939 170.49 60.8571 169.745 61.928 169.301C62.7388 169.659 63.6157 169.846 64.5029 169.849L112.16 170.168C113.047 170.169 113.925 169.99 114.741 169.643C115.805 170.095 116.714 170.846 117.356 171.804C117.998 172.763 118.346 173.888 118.357 175.04Z" stroke="#231F20" stroke-width="2" stroke-miterlimit="10"/>
<path d="M118.458 164.269C118.433 165.427 118.071 166.553 117.417 167.51C116.762 168.467 115.843 169.214 114.77 169.661C113.954 170.008 113.076 170.186 112.189 170.186L64.5326 169.867C62.8942 169.864 61.3203 169.23 60.1404 168.097C59.5775 167.547 59.1305 166.891 58.8256 166.167C58.5206 165.443 58.3639 164.665 58.3646 163.88C58.3709 162.972 58.5962 162.08 59.0216 161.278C59.6744 160.031 60.7385 159.046 62.0346 158.488C62.8487 158.851 63.7295 159.042 64.6214 159.048L112.278 159.367C113.159 159.368 114.032 159.189 114.841 158.842C115.518 159.134 116.137 159.544 116.67 160.051C117.154 160.512 117.555 161.053 117.854 161.65C118.261 162.463 118.468 163.36 118.458 164.269Z" stroke="#231F20" stroke-width="2" stroke-miterlimit="10"/>
<path d="M118.499 153.397V153.444C118.476 154.606 118.113 155.735 117.455 156.694C116.797 157.653 115.872 158.4 114.794 158.842C113.984 159.189 113.112 159.368 112.231 159.367L64.574 159.048C63.6822 159.042 62.8014 158.851 61.9872 158.488C60.9296 158.034 60.0268 157.284 59.388 156.329C58.7492 155.374 58.402 154.255 58.3883 153.108V153.061C58.4012 151.553 59.0069 150.111 60.0753 149.044C60.6703 148.435 61.3832 147.952 62.1707 147.626C62.9582 147.299 63.804 147.135 64.6569 147.144L112.314 147.457C113.153 147.46 113.983 147.63 114.756 147.957C115.528 148.284 116.228 148.762 116.812 149.362C117.889 150.431 118.496 151.882 118.499 153.397Z" stroke="#231F20" stroke-width="2" stroke-miterlimit="10"/>
</svg>
