<svg width="159" height="155" viewBox="0 0 159 155" fill="none" xmlns="http://www.w3.org/2000/svg">
<path d="M158 12.0155V116.952C158 119.874 156.834 122.677 154.758 124.745C152.681 126.812 149.865 127.975 146.927 127.978H12.0675C9.13077 127.974 6.31566 126.81 4.24058 124.743C2.1655 122.676 0.999997 119.873 1 116.952V12.0155C1.00142 9.09579 2.16796 6.29605 4.24319 4.23152C6.31843 2.16699 9.13269 1.00654 12.0675 1.00513H146.927C149.863 1.00513 152.679 2.16495 154.755 4.22964C156.831 6.29432 157.999 9.09487 158 12.0155Z" fill="#FAAD19"/>
<path d="M158 12.0155V116.952C158 119.874 156.834 122.677 154.758 124.745C152.681 126.812 149.865 127.975 146.927 127.978H12.0675C9.13077 127.974 6.31566 126.81 4.24058 124.743C2.1655 122.676 0.999997 119.873 1 116.952V12.0155C1.00142 9.09579 2.16796 6.29605 4.24319 4.23152C6.31843 2.16699 9.13269 1.00654 12.0675 1.00513H146.927C149.863 1.00513 152.679 2.16495 154.755 4.22964C156.831 6.29432 157.999 9.09487 158 12.0155Z" stroke="black" stroke-width="2" stroke-miterlimit="10"/>
<path d="M143.886 31.8096H13.5827C11.217 31.8096 9.29919 33.7175 9.29919 36.0709V114.96C9.29919 117.313 11.217 119.221 13.5827 119.221H143.886C146.252 119.221 148.169 117.313 148.169 114.96V36.0709C148.169 33.7175 146.252 31.8096 143.886 31.8096Z" fill="#FFCC01"/>
<path d="M158 12.0208V25.9022H1V12.0208C1 9.09927 2.16665 6.29736 4.24319 4.23152C6.31974 2.16569 9.13619 1.00513 12.0729 1.00513H146.933C149.868 1.00654 152.683 2.16773 154.759 4.23341C156.834 6.29909 158 9.1002 158 12.0208Z" fill="#F73468"/>
<path d="M158 12.021V25.9024H1V13.651C19.7402 19.8779 138.135 17.5608 142.553 14.418C146.06 11.9305 144.545 5.49042 142.917 1H146.933C148.387 1.0007 149.826 1.28632 151.17 1.84056C152.513 2.39479 153.733 3.20678 154.761 4.23017C155.788 5.25356 156.603 6.46834 157.159 7.80509C157.715 9.14184 158.001 10.5744 158 12.021Z" fill="#D30F54"/>
<path d="M158 12.0208V25.9022H1V12.0208C1 9.09927 2.16665 6.29736 4.24319 4.23152C6.31974 2.16569 9.13619 1.00513 12.0729 1.00513H146.933C149.868 1.00654 152.683 2.16773 154.759 4.23341C156.834 6.29909 158 9.1002 158 12.0208Z" stroke="#231F20" stroke-width="2" stroke-miterlimit="10"/>
<path d="M45.0234 10.2043C44.3668 10.2043 43.7251 10.3981 43.1792 10.7609C42.6333 11.1238 42.2077 11.6396 41.9564 12.2431C41.7052 12.8466 41.6394 13.5106 41.7675 14.1512C41.8956 14.7918 42.2118 15.3803 42.676 15.8422C43.1403 16.3041 43.7319 16.6186 44.3758 16.746C45.0198 16.8735 45.6873 16.8081 46.2939 16.5581C46.9005 16.3081 47.4189 15.8848 47.7837 15.3417C48.1485 14.7986 48.3432 14.1601 48.3432 13.5069C48.3432 12.631 47.9933 11.791 47.3708 11.1716C46.7482 10.5523 45.9038 10.2043 45.0234 10.2043Z" fill="white"/>
<path d="M45.0234 10.2043C44.3668 10.2043 43.7251 10.3981 43.1792 10.7609C42.6333 11.1238 42.2077 11.6396 41.9564 12.2431C41.7052 12.8466 41.6394 13.5106 41.7675 14.1512C41.8956 14.7918 42.2118 15.3803 42.676 15.8422C43.1403 16.3041 43.7319 16.6186 44.3758 16.746C45.0198 16.8735 45.6873 16.8081 46.2939 16.5581C46.9005 16.3081 47.4189 15.8848 47.7837 15.3417C48.1485 14.7986 48.3432 14.1601 48.3432 13.5069C48.3432 12.631 47.9933 11.791 47.3708 11.1716C46.7482 10.5523 45.9038 10.2043 45.0234 10.2043Z" stroke="#231F20" stroke-width="2" stroke-miterlimit="10"/>
<path d="M29.8761 10.2044C29.2193 10.2033 28.5769 10.3961 28.0303 10.7583C27.4836 11.1206 27.0572 11.636 26.8052 12.2394C26.5531 12.8428 26.4866 13.507 26.614 14.148C26.7415 14.7889 27.0573 15.3779 27.5214 15.8403C27.9854 16.3027 28.5769 16.6178 29.221 16.7456C29.8651 16.8735 30.5328 16.8084 31.1397 16.5586C31.7466 16.3088 32.2655 15.8855 32.6305 15.3422C32.9955 14.799 33.1904 14.1603 33.1904 13.5069C33.1904 12.6319 32.8413 11.7927 32.2199 11.1735C31.5985 10.5543 30.7556 10.2058 29.8761 10.2044Z" fill="white"/>
<path d="M29.8761 10.2044C29.2193 10.2033 28.5769 10.3961 28.0303 10.7583C27.4836 11.1206 27.0572 11.636 26.8052 12.2394C26.5531 12.8428 26.4866 13.507 26.614 14.148C26.7415 14.7889 27.0573 15.3779 27.5214 15.8403C27.9854 16.3027 28.5769 16.6178 29.221 16.7456C29.8651 16.8735 30.5328 16.8084 31.1397 16.5586C31.7466 16.3088 32.2655 15.8855 32.6305 15.3422C32.9955 14.799 33.1904 14.1603 33.1904 13.5069C33.1904 12.6319 32.8413 11.7927 32.2199 11.1735C31.5985 10.5543 30.7556 10.2058 29.8761 10.2044Z" stroke="#231F20" stroke-width="2" stroke-miterlimit="10"/>
<path d="M14.7286 10.2044C14.0718 10.2033 13.4294 10.3961 12.8828 10.7583C12.3362 11.1206 11.9098 11.636 11.6577 12.2394C11.4056 12.8428 11.3391 13.507 11.4666 14.148C11.5941 14.7889 11.9099 15.3779 12.3739 15.8403C12.838 16.3027 13.4294 16.6178 14.0735 16.7456C14.7177 16.8735 15.3855 16.8084 15.9924 16.5586C16.5993 16.3088 17.118 15.8855 17.483 15.3422C17.848 14.799 18.0429 14.1603 18.0429 13.5069C18.0436 13.0734 17.9584 12.6441 17.7922 12.2435C17.6259 11.8428 17.3818 11.4787 17.074 11.172C16.7662 10.8652 16.4006 10.6219 15.9982 10.4559C15.5957 10.2898 15.1643 10.2043 14.7286 10.2044Z" fill="white"/>
<path d="M14.7286 10.2044C14.0718 10.2033 13.4294 10.3961 12.8828 10.7583C12.3362 11.1206 11.9098 11.636 11.6577 12.2394C11.4056 12.8428 11.3391 13.507 11.4666 14.148C11.5941 14.7889 11.9099 15.3779 12.3739 15.8403C12.838 16.3027 13.4294 16.6178 14.0735 16.7456C14.7177 16.8735 15.3855 16.8084 15.9924 16.5586C16.5993 16.3088 17.118 15.8855 17.483 15.3422C17.848 14.799 18.0429 14.1603 18.0429 13.5069C18.0436 13.0734 17.9584 12.6441 17.7922 12.2435C17.6259 11.8428 17.3818 11.4787 17.074 11.172C16.7662 10.8652 16.4006 10.6219 15.9982 10.4559C15.5957 10.2898 15.1643 10.2043 14.7286 10.2044Z" stroke="#231F20" stroke-width="2" stroke-miterlimit="10"/>
<path d="M139.474 16.5698H66.7567C66.3522 16.5705 65.9516 16.4918 65.5778 16.3381C65.2039 16.1844 64.8642 15.9588 64.5781 15.6743C64.2921 15.3897 64.0654 15.0518 63.9109 14.6799C63.7565 14.308 63.6773 13.9093 63.678 13.5069C63.6773 13.1042 63.7564 12.7054 63.9108 12.3332C64.0652 11.961 64.2919 11.6227 64.5779 11.3377C64.8638 11.0528 65.2035 10.8267 65.5774 10.6724C65.9512 10.5182 66.352 10.4387 66.7567 10.4387H139.469C140.287 10.4387 141.071 10.762 141.65 11.3374C142.228 11.9128 142.553 12.6932 142.553 13.5069C142.553 13.9091 142.473 14.3074 142.318 14.679C142.164 15.0506 141.937 15.3883 141.651 15.6727C141.365 15.9571 141.026 16.1827 140.652 16.3367C140.279 16.4906 139.878 16.5698 139.474 16.5698Z" fill="white" stroke="#231F20" stroke-width="2" stroke-miterlimit="10"/>
<path d="M131.758 136.016H142.039" stroke="#231F20" stroke-width="2" stroke-miterlimit="10"/>
<path d="M67.1851 136.016H127.898" stroke="#231F20" stroke-width="2" stroke-miterlimit="10"/>
<path d="M50.0886 66.1191H15.1301C12.7585 66.1191 10.8359 68.0318 10.8359 70.3912V83.8625C10.8359 86.2218 12.7585 88.1345 15.1301 88.1345H50.0886C52.4603 88.1345 54.3827 86.2218 54.3827 83.8625V70.3912C54.3827 68.0318 52.4603 66.1191 50.0886 66.1191Z" fill="#E79AD2" stroke="#231F20" stroke-width="2" stroke-miterlimit="10"/>
<path d="M141.996 66.1191H107.037C104.666 66.1191 102.743 68.0318 102.743 70.3912V83.8625C102.743 86.2218 104.666 88.1345 107.037 88.1345H141.996C144.367 88.1345 146.29 86.2218 146.29 83.8625V70.3912C146.29 68.0318 144.367 66.1191 141.996 66.1191Z" fill="#FFE000"/>
<path d="M141.996 100.428H107.037C104.666 100.428 102.743 102.341 102.743 104.701V118.172C102.743 120.531 104.666 122.444 107.037 122.444H141.996C144.367 122.444 146.29 120.531 146.29 118.172V104.701C146.29 102.341 144.367 100.428 141.996 100.428Z" fill="#FF6C95"/>
<path d="M146.279 36.0817V49.553C146.279 50.6832 145.828 51.7671 145.025 52.5662C144.221 53.3654 143.132 53.8143 141.996 53.8143H107.043C105.907 53.8143 104.817 53.3654 104.014 52.5662C103.211 51.7671 102.759 50.6832 102.759 49.553V36.0817C102.759 34.9515 103.211 33.8676 104.014 33.0684C104.817 32.2693 105.907 31.8203 107.043 31.8203H141.996C143.132 31.8203 144.221 32.2693 145.025 33.0684C145.828 33.8676 146.279 34.9515 146.279 36.0817Z" fill="#FF403C"/>
<path d="M102.743 79.2332V75.0199H78.5631V44.9239H102.743V40.7104H76.4428C75.8747 40.7104 75.3299 40.9349 74.9282 41.3345C74.5266 41.7341 74.301 42.276 74.301 42.8411V75.0411H54.3615V79.2546H74.301V111.455C74.301 112.02 74.5266 112.562 74.9282 112.961C75.3299 113.361 75.8747 113.585 76.4428 113.585H102.743V109.345H78.5631V79.2546L102.743 79.2332Z" fill="white" stroke="#231F20" stroke-width="2" stroke-miterlimit="10"/>
<path d="M146.279 40.8758V49.5531C146.279 50.6833 145.828 51.7672 145.025 52.5663C144.221 53.3655 143.132 53.8144 141.996 53.8144H107.043C105.907 53.8144 104.817 53.3655 104.014 52.5663C103.211 51.7672 102.759 50.6833 102.759 49.5531V36.0818C102.759 36.0818 126.597 46.8311 146.279 40.8758Z" fill="#D32D24"/>
<path d="M146.279 74.8548V83.5321C146.279 84.6623 145.828 85.7462 145.025 86.5453C144.221 87.3445 143.132 87.7935 141.996 87.7935H107.043C105.907 87.7935 104.817 87.3445 104.014 86.5453C103.211 85.7462 102.759 84.6623 102.759 83.5321V70.0608C102.759 70.0608 126.597 80.8101 146.279 74.8548Z" fill="#FFCA00"/>
<path d="M54.3828 74.8548V83.5321C54.3828 84.6623 53.9315 85.7462 53.1282 86.5453C52.3249 87.3445 51.2353 87.7935 50.0993 87.7935H15.1409C14.0048 87.7935 12.9153 87.3445 12.112 86.5453C11.3086 85.7462 10.8574 84.6623 10.8574 83.5321V70.0608C10.8574 70.0608 34.6948 80.8101 54.3828 74.8548Z" fill="#C34CA3"/>
<path d="M146.279 109.463V118.14C146.279 119.27 145.828 120.354 145.025 121.153C144.221 121.952 143.132 122.401 141.996 122.401H107.043C105.907 122.401 104.817 121.952 104.014 121.153C103.211 120.354 102.759 119.27 102.759 118.14V104.668C102.759 104.668 126.597 115.418 146.279 109.463Z" fill="#E62C65"/>
<path d="M50.0886 66.1191H15.1301C12.7585 66.1191 10.8359 68.0318 10.8359 70.3912V83.8625C10.8359 86.2218 12.7585 88.1345 15.1301 88.1345H50.0886C52.4603 88.1345 54.3827 86.2218 54.3827 83.8625V70.3912C54.3827 68.0318 52.4603 66.1191 50.0886 66.1191Z" stroke="#231F20" stroke-width="2" stroke-miterlimit="10"/>
<path d="M141.996 66.1191H107.037C104.666 66.1191 102.743 68.0318 102.743 70.3912V83.8625C102.743 86.2218 104.666 88.1345 107.037 88.1345H141.996C144.367 88.1345 146.29 86.2218 146.29 83.8625V70.3912C146.29 68.0318 144.367 66.1191 141.996 66.1191Z" stroke="#231F20" stroke-width="2" stroke-miterlimit="10"/>
<path d="M141.996 100.428H107.037C104.666 100.428 102.743 102.341 102.743 104.701V118.172C102.743 120.531 104.666 122.444 107.037 122.444H141.996C144.367 122.444 146.29 120.531 146.29 118.172V104.701C146.29 102.341 144.367 100.428 141.996 100.428Z" stroke="#231F20" stroke-width="2" stroke-miterlimit="10"/>
<path d="M146.279 36.0817V49.553C146.279 50.6832 145.828 51.7671 145.025 52.5662C144.221 53.3654 143.132 53.8143 141.996 53.8143H107.043C105.907 53.8143 104.817 53.3654 104.014 52.5662C103.211 51.7671 102.759 50.6832 102.759 49.553V36.0817C102.759 34.9515 103.211 33.8676 104.014 33.0684C104.817 32.2693 105.907 31.8203 107.043 31.8203H141.996C143.132 31.8203 144.221 32.2693 145.025 33.0684C145.828 33.8676 146.279 34.9515 146.279 36.0817Z" stroke="#231F20" stroke-width="2" stroke-miterlimit="10"/>
<path d="M30.4971 36.998H10.8359V55.0982H30.4971V36.998Z" fill="#FF44FF" stroke="black" stroke-width="2" stroke-miterlimit="10"/>
<path d="M10.8359 36.998L30.4971 55.0982" stroke="#231F20" stroke-width="2" stroke-miterlimit="10"/>
<path d="M30.4971 36.998L10.8359 55.0982" stroke="#231F20" stroke-width="2" stroke-miterlimit="10"/>
<path d="M54.3828 36.998H34.7217V55.0982H54.3828V36.998Z" fill="#FF44FF" stroke="black" stroke-width="2" stroke-miterlimit="10"/>
<path d="M34.7217 36.998L54.3828 55.0982" stroke="#231F20" stroke-width="2" stroke-miterlimit="10"/>
<path d="M54.3828 36.998L34.7217 55.0982" stroke="#231F20" stroke-width="2" stroke-miterlimit="10"/>
<path d="M60.0851 127.227C60.0793 133.182 58.08 138.965 54.4028 143.664C50.7256 148.363 45.5799 151.71 39.7782 153.175C33.9766 154.641 27.8494 154.143 22.3641 151.759C16.8788 149.375 12.3479 145.242 9.48658 140.011C9.2617 139.596 9.04219 139.175 8.83872 138.754C8.49704 138.061 8.19308 137.349 7.92838 136.623C5.9596 131.4 5.67837 125.696 7.12366 120.307C8.56896 114.917 11.6687 110.11 15.991 106.556C20.3133 103.003 25.6426 100.88 31.2356 100.483C36.8286 100.086 42.4065 101.436 47.1918 104.344C48.6449 105.221 50.0079 106.238 51.2612 107.38C51.7966 107.875 52.3642 108.403 52.8675 108.946C57.521 113.906 60.1016 120.442 60.0851 127.227Z" fill="#FFE000"/>
<path d="M47.2401 104.354C50.5313 109.464 51.9815 115.534 51.3535 121.571C50.7255 127.608 48.0564 133.254 43.783 137.585C39.5097 141.916 33.8851 144.676 27.8298 145.413C21.7745 146.149 15.6472 144.82 10.4504 141.641C12.6343 145.032 15.5581 147.889 19.0047 150.001C22.4513 152.113 26.3321 153.425 30.3585 153.84C34.3849 154.254 38.4534 153.761 42.2617 152.396C46.07 151.031 49.5202 148.83 52.3557 145.956C55.1913 143.082 57.3393 139.609 58.6402 135.796C59.9411 131.983 60.3614 127.927 59.8699 123.929C59.3783 119.932 57.9877 116.096 55.8012 112.707C53.6146 109.319 50.6884 106.463 47.2401 104.354Z" fill="#FFCA00"/>
<path d="M9.46524 140.027C9.24035 139.612 9.02085 139.191 8.81738 138.77C9.11371 139.143 9.33379 139.57 9.46524 140.027Z" fill="#AFD8F2"/>
<path d="M33.1528 100.428C38.108 100.421 42.9681 101.782 47.1919 104.36C25.63 102.761 7.92847 121.346 7.92847 136.639C6.39605 132.584 5.87497 128.22 6.40988 123.92C6.9448 119.62 8.51977 115.514 10.9998 111.953C13.4798 108.392 16.7909 105.482 20.6492 103.473C24.5075 101.464 28.798 100.415 33.1528 100.418V100.428Z" fill="#FFFF00"/>
<path d="M25.5658 117.676L14.991 124.1L30.1865 143.974L51.304 115.279L47.1758 110.469L30.5186 124.926L25.5658 117.676Z" fill="#B63E96" stroke="#231F20" stroke-width="2" stroke-linejoin="round"/>
<path d="M60.0851 127.227C60.0793 133.182 58.08 138.965 54.4028 143.664C50.7256 148.363 45.5799 151.71 39.7782 153.175C33.9766 154.641 27.8494 154.143 22.3641 151.759C16.8788 149.375 12.3479 145.242 9.48658 140.011C9.2617 139.596 9.04219 139.175 8.83872 138.754C8.49704 138.061 8.19308 137.349 7.92838 136.623C5.9596 131.4 5.67837 125.696 7.12366 120.307C8.56896 114.917 11.6687 110.11 15.991 106.556C20.3133 103.003 25.6426 100.88 31.2356 100.483C36.8286 100.086 42.4065 101.436 47.1918 104.344C48.6449 105.221 50.0079 106.238 51.2612 107.38C51.7966 107.875 52.3642 108.403 52.8675 108.946C57.521 113.906 60.1016 120.442 60.0851 127.227Z" stroke="#231F20" stroke-width="2" stroke-miterlimit="10"/>
<path d="M138.446 41.1634H110.603C110.358 41.1641 110.115 41.1167 109.889 41.0238C109.662 40.931 109.456 40.7945 109.282 40.6223C109.109 40.4501 108.971 40.2455 108.877 40.0203C108.783 39.795 108.735 39.5536 108.735 39.3097C108.735 38.8167 108.932 38.3438 109.282 37.9952C109.633 37.6466 110.108 37.4507 110.603 37.4507H138.446C138.691 37.4507 138.934 37.4988 139.16 37.5923C139.387 37.6858 139.592 37.8228 139.765 37.9955C139.939 38.1682 140.076 38.3732 140.169 38.5987C140.262 38.8242 140.31 39.0658 140.309 39.3097C140.309 39.8013 140.113 40.2728 139.764 40.6204C139.414 40.9681 138.94 41.1634 138.446 41.1634Z" fill="white" stroke="#231F20" stroke-width="2" stroke-miterlimit="10"/>
<path d="M127.582 48.1946H110.582C110.337 48.1953 110.094 48.1479 109.867 48.0551C109.641 47.9623 109.435 47.8258 109.261 47.6536C109.087 47.4814 108.95 47.2768 108.856 47.0516C108.762 46.8263 108.713 46.5848 108.713 46.341C108.713 45.8479 108.91 45.3751 109.261 45.0264C109.611 44.6778 110.086 44.4819 110.582 44.4819H127.582C127.827 44.4819 128.07 44.5301 128.296 44.6236C128.523 44.717 128.728 44.8541 128.901 45.0268C129.075 45.1995 129.212 45.4044 129.305 45.6299C129.398 45.8554 129.446 46.0971 129.445 46.341C129.445 46.5844 129.397 46.8255 129.304 47.0504C129.21 47.2753 129.073 47.4796 128.9 47.6518C128.727 47.8239 128.521 47.9604 128.295 48.0535C128.069 48.1467 127.827 48.1946 127.582 48.1946Z" fill="white" stroke="#231F20" stroke-width="2" stroke-miterlimit="10"/>
<path d="M138.446 76.1121H110.603C110.108 76.1121 109.633 75.9163 109.282 75.5676C108.932 75.219 108.735 74.7462 108.735 74.2531C108.735 74.0092 108.783 73.7677 108.877 73.5425C108.971 73.3172 109.109 73.1127 109.282 72.9405C109.456 72.7683 109.662 72.6318 109.889 72.539C110.115 72.4461 110.358 72.3987 110.603 72.3994H138.446C138.94 72.3994 139.414 72.5947 139.764 72.9424C140.113 73.29 140.309 73.7615 140.309 74.2531C140.31 74.497 140.262 74.7386 140.169 74.9641C140.076 75.1897 139.939 75.3946 139.765 75.5673C139.592 75.74 139.387 75.877 139.16 75.9705C138.934 76.064 138.691 76.1121 138.446 76.1121Z" fill="white" stroke="#231F20" stroke-width="2" stroke-miterlimit="10"/>
<path d="M127.582 83.1487H110.582C110.086 83.1487 109.611 82.9529 109.261 82.6043C108.91 82.2557 108.713 81.7828 108.713 81.2897C108.713 81.0459 108.762 80.8044 108.856 80.5792C108.95 80.3539 109.087 80.1493 109.261 79.9771C109.435 79.8049 109.641 79.6685 109.867 79.5756C110.094 79.4828 110.337 79.4353 110.582 79.436H127.582C128.076 79.436 128.55 79.6314 128.9 79.979C129.249 80.3266 129.445 80.7981 129.445 81.2897C129.446 81.5336 129.398 81.7752 129.305 82.0008C129.212 82.2263 129.075 82.4313 128.901 82.604C128.728 82.7767 128.523 82.9137 128.296 83.0072C128.07 83.1007 127.827 83.1488 127.582 83.1487Z" fill="white" stroke="#231F20" stroke-width="2" stroke-miterlimit="10"/>
<path d="M46.5441 76.1121H18.6747C18.4296 76.1121 18.1869 76.064 17.9604 75.9705C17.734 75.877 17.5284 75.74 17.3553 75.5673C17.1822 75.3946 17.045 75.1896 16.9517 74.9641C16.8583 74.7386 16.8107 74.497 16.8114 74.2531C16.8114 73.7615 17.0077 73.29 17.3572 72.9424C17.7066 72.5947 18.1805 72.3994 18.6747 72.3994H46.5441C47.0383 72.3994 47.5122 72.5947 47.8616 72.9424C48.2111 73.29 48.4074 73.7615 48.4074 74.2531C48.4081 74.497 48.3605 74.7386 48.2671 74.9641C48.1738 75.1896 48.0367 75.3946 47.8636 75.5673C47.6905 75.74 47.4848 75.877 47.2583 75.9705C47.0319 76.064 46.7892 76.1121 46.5441 76.1121Z" fill="white" stroke="#231F20" stroke-width="2" stroke-miterlimit="10"/>
<path d="M35.7015 83.1487H18.6747C18.4296 83.1487 18.1869 83.1007 17.9604 83.0072C17.734 82.9137 17.5284 82.7767 17.3553 82.604C17.1822 82.4313 17.045 82.2263 16.9517 82.0008C16.8583 81.7752 16.8107 81.5336 16.8114 81.2897C16.8114 80.7981 17.0077 80.3266 17.3572 79.979C17.7066 79.6313 18.1805 79.436 18.6747 79.436H35.7015C36.1957 79.436 36.6696 79.6313 37.0191 79.979C37.3685 80.3266 37.5648 80.7981 37.5648 81.2897C37.5656 81.5336 37.5179 81.7752 37.4246 82.0008C37.3313 82.2263 37.1941 82.4313 37.021 82.604C36.848 82.7767 36.6422 82.9137 36.4158 83.0072C36.1894 83.1007 35.9467 83.1487 35.7015 83.1487Z" fill="white" stroke="#231F20" stroke-width="2" stroke-miterlimit="10"/>
<path d="M138.446 110.299H110.603C110.358 110.299 110.115 110.252 109.889 110.159C109.662 110.066 109.456 109.93 109.282 109.758C109.109 109.585 108.971 109.381 108.877 109.156C108.783 108.93 108.735 108.689 108.735 108.445C108.735 107.952 108.932 107.479 109.282 107.13C109.633 106.782 110.108 106.586 110.603 106.586H138.446C138.941 106.587 139.415 106.784 139.764 107.132C140.113 107.481 140.309 107.953 140.309 108.445C140.309 108.937 140.113 109.408 139.764 109.756C139.414 110.103 138.94 110.299 138.446 110.299Z" fill="white" stroke="#231F20" stroke-width="2" stroke-miterlimit="10"/>
<path d="M127.582 117.336H110.582C110.086 117.336 109.611 117.14 109.261 116.791C108.91 116.442 108.713 115.97 108.713 115.476C108.713 115.233 108.762 114.991 108.856 114.766C108.95 114.541 109.087 114.336 109.261 114.164C109.435 113.992 109.641 113.855 109.867 113.762C110.094 113.67 110.337 113.622 110.582 113.623H127.582C128.076 113.623 128.55 113.818 128.9 114.166C129.249 114.513 129.445 114.985 129.445 115.476C129.446 115.72 129.398 115.962 129.305 116.188C129.212 116.413 129.075 116.618 128.901 116.791C128.728 116.963 128.523 117.1 128.296 117.194C128.07 117.287 127.827 117.336 127.582 117.336Z" fill="white" stroke="#231F20" stroke-width="2" stroke-miterlimit="10"/>
</svg>
