<svg width="147" height="164" viewBox="0 0 147 164" fill="none" xmlns="http://www.w3.org/2000/svg">
<path d="M115.98 163H122.684" stroke="#231F20" stroke-width="2" stroke-miterlimit="10" stroke-linecap="round"/>
<path d="M9.28323 163H108.586" stroke="#231F20" stroke-width="2" stroke-miterlimit="10" stroke-linecap="round"/>
<path d="M24.6788 163H39.677" stroke="#231F20" stroke-width="2" stroke-miterlimit="10" stroke-linecap="round"/>
<path d="M84.3837 139.038V163H96.8403V136.88C97.2249 135.744 97.96 134.759 98.9399 134.066C99.9199 133.374 101.094 133.009 102.295 133.025H90.3819C89.5927 133.026 88.8113 133.182 88.0825 133.484C87.3537 133.787 86.6918 134.23 86.1347 134.789C85.5776 135.347 85.1362 136.01 84.8357 136.739C84.5353 137.468 84.3817 138.249 84.3837 139.038Z" fill="#605CED"/>
<path d="M27.7118 88.5117C31.6026 99.3514 38.2806 104.941 38.2806 119.96L38.5055 162.979H96.8142V136.859C97.1988 135.723 97.9338 134.738 98.9138 134.046C99.8937 133.353 101.068 132.988 102.268 133.004H124.18C125.652 133.036 127.077 132.486 128.145 131.473C129.213 130.461 129.836 129.067 129.88 127.597V106.555H140.475C141.854 106.569 143.192 106.087 144.246 105.197C145.068 104.466 145.639 103.494 145.877 102.42C146.114 101.346 146.007 100.225 145.569 99.2155L129.357 67.1927C129.357 67.1927 132.667 33.9527 109.485 20.5063C88.4313 8.31879 61.2014 13.6315 61.2014 13.6315C12.9647 24.1578 18.6439 63.2695 27.7118 88.5117Z" stroke="#231F20" stroke-width="2" stroke-miterlimit="10"/>
<path d="M79.5203 133.046H103.989" stroke="#231F20" stroke-width="2" stroke-miterlimit="10" stroke-linecap="round"/>
<path d="M5.87884 93.6677C5.87988 93.2942 5.76989 92.9289 5.56285 92.618C5.35581 92.3071 5.06104 92.0645 4.71587 91.9212C4.3707 91.7778 3.99071 91.74 3.62401 91.8126C3.25732 91.8852 2.92046 92.0649 2.65613 92.329C2.39179 92.593 2.21185 92.9295 2.13918 93.2958C2.0665 93.6621 2.10436 94.0417 2.24789 94.3865C2.39143 94.7313 2.63418 95.0258 2.94543 95.2327C3.25669 95.4395 3.62242 95.5493 3.99624 95.5483C4.49512 95.5469 4.97313 95.3483 5.32589 94.9959C5.67865 94.6436 5.87746 94.166 5.87884 93.6677Z" fill="#605CED" stroke="#231F20" stroke-width="2" stroke-miterlimit="10"/>
<path d="M7.17692 69.0366L2 74.208L7.17692 79.3795L12.3538 74.208L7.17692 69.0366Z" fill="#F3B01C" stroke="#231F20" stroke-width="2" stroke-miterlimit="10"/>
<path d="M8.61908 32.1243V41.4334" stroke="#231F20" stroke-width="2" stroke-linecap="round" stroke-linejoin="round"/>
<path d="M13.221 36.8728H3.99617" stroke="#231F20" stroke-width="2" stroke-linecap="round" stroke-linejoin="round"/>
<path d="M138.488 55.4128C137.857 55.4118 137.239 55.598 136.714 55.9477C136.188 56.2975 135.779 56.7951 135.537 57.3776C135.295 57.9601 135.231 58.6012 135.354 59.2199C135.477 59.8385 135.781 60.4067 136.227 60.8527C136.674 61.2987 137.242 61.6023 137.862 61.7251C138.481 61.8479 139.123 61.7843 139.706 61.5425C140.289 61.3006 140.787 60.8914 141.137 60.3666C141.487 59.8417 141.674 59.2249 141.673 58.5942C141.671 57.7509 141.335 56.9425 140.738 56.3462C140.141 55.7498 139.332 55.4142 138.488 55.4128Z" fill="#605CED" stroke="#231F20" stroke-width="2" stroke-miterlimit="10"/>
<path d="M132.886 16.6221L127.413 22.0891L132.886 27.5561L138.359 22.0891L132.886 16.6221Z" fill="#FF44FF" stroke="#231F20" stroke-width="2" stroke-linejoin="round"/>
<path d="M140.951 114.532V123.277" stroke="#231F20" stroke-width="2" stroke-linecap="round" stroke-linejoin="round"/>
<path d="M145.281 118.988H136.611" stroke="#231F20" stroke-width="2" stroke-linecap="round" stroke-linejoin="round"/>
<path d="M39.8757 48.9924C41.1883 33.1273 53.1272 22.0107 69.1189 22.0107H69.3333C85.3146 22.0107 97.2588 33.1273 98.5661 48.9924C99.2146 56.7761 99.3505 63.8232 86.5383 78.8212C83.8661 81.9556 83.0712 88.2243 82.7784 91.9542C82.6162 93.9654 72.8423 95.2819 69.2183 95.5483C65.5576 95.2819 55.8256 93.9811 55.6582 91.9542C55.3549 88.2504 54.5705 81.9608 51.8982 78.8212C39.0912 63.8232 39.2377 56.7761 39.8757 48.9924Z" fill="#FFCA00" stroke="black" stroke-width="2" stroke-miterlimit="10"/>
<path d="M69.2182 85.5288H84.7445V105.463C84.7132 105.808 84.2739 106.257 83.4058 106.743L72.8057 112.646C71.6889 113.193 70.4618 113.477 69.2182 113.477C67.9746 113.477 66.7475 113.193 65.6308 112.646L55.0307 106.743C54.1626 106.257 53.7233 105.808 53.6867 105.463V85.5288H69.2182Z" fill="#C34CA3" stroke="#231F20" stroke-width="2" stroke-miterlimit="10"/>
<path d="M85.1368 85.5288H53.3102C51.817 85.5288 50.6066 86.738 50.6066 88.2296C50.6066 89.7212 51.817 90.9304 53.3102 90.9304H85.1368C86.63 90.9304 87.8405 89.7212 87.8405 88.2296C87.8405 86.738 86.63 85.5288 85.1368 85.5288Z" fill="#E47AC7" stroke="#231F20" stroke-width="2" stroke-miterlimit="10"/>
<path d="M53.3102 102.904H85.1368C85.8539 102.904 86.5415 102.619 87.0486 102.112C87.5556 101.606 87.8405 100.919 87.8405 100.203C87.8405 99.4864 87.5556 98.7995 87.0486 98.293C86.5415 97.7865 85.8539 97.502 85.1368 97.502H53.3102C52.5931 97.502 51.9055 97.7865 51.3985 98.293C50.8915 98.7995 50.6066 99.4864 50.6066 100.203C50.6066 100.919 50.8915 101.606 51.3985 102.112C51.9055 102.619 52.5931 102.904 53.3102 102.904Z" fill="#E47AC7" stroke="#231F20" stroke-width="2" stroke-miterlimit="10"/>
<path d="M61.1126 55.9715C67.1683 67.6366 78.0561 73.9942 85.4349 70.1702C92.8137 66.3463 93.8857 53.7984 87.8352 42.1333C81.7847 30.4682 70.8969 24.1106 63.5181 27.9294C56.1393 31.7481 55.0673 44.3065 61.1126 55.9715Z" fill="#FFE000"/>
<path d="M69.6941 49.7134C73.2815 56.6195 79.7242 60.3859 84.096 58.124C88.4679 55.862 89.1007 48.4283 85.5185 41.517C81.9363 34.6057 75.4884 30.8497 71.1217 33.1065C66.7551 35.3632 66.1119 42.8021 69.6941 49.7134Z" fill="#FFFF00"/>
<path d="M68.3449 14.9532C67.7902 14.9532 67.2581 14.733 66.8658 14.3411C66.4736 13.9493 66.2531 13.4178 66.2531 12.8636V3.08958C66.2531 2.53539 66.4736 2.00389 66.8658 1.61202C67.2581 1.22015 67.7902 1 68.3449 1C68.8997 1 69.4318 1.22015 69.8241 1.61202C70.2164 2.00389 70.4367 2.53539 70.4367 3.08958V12.8531C70.4381 13.1284 70.385 13.4013 70.2805 13.656C70.176 13.9107 70.0222 14.1423 69.8278 14.3374C69.6334 14.5326 69.4023 14.6874 69.1479 14.7931C68.8934 14.8988 68.6205 14.9532 68.3449 14.9532Z" fill="white" stroke="#231F20" stroke-width="2" stroke-miterlimit="10"/>
<path d="M85.0217 19.7122C84.7946 19.5555 84.6007 19.3554 84.4514 19.1235C84.302 18.8915 84.2001 18.6324 84.1515 18.3609C84.1029 18.0895 84.1085 17.8111 84.1681 17.5418C84.2278 17.2725 84.3401 17.0177 84.4988 16.792L90.0107 8.7367C90.1651 8.50733 90.3636 8.31085 90.5946 8.15865C90.8257 8.00646 91.0846 7.90156 91.3565 7.85006C91.6284 7.79856 91.9078 7.80146 92.1786 7.8586C92.4494 7.91575 92.7061 8.026 92.9339 8.18297C93.1611 8.3397 93.3549 8.53979 93.5042 8.77171C93.6536 9.00364 93.7555 9.2628 93.8041 9.53426C93.8527 9.80572 93.8471 10.0841 93.7875 10.3534C93.7279 10.6227 93.6155 10.8775 93.4569 11.1032L87.945 19.1637C87.7902 19.3927 87.5913 19.5887 87.3601 19.7404C87.1289 19.8921 86.8698 19.9964 86.598 20.0474C86.3261 20.0985 86.0468 20.0951 85.7763 20.0375C85.5057 19.98 85.2492 19.8694 85.0217 19.7122Z" fill="white" stroke="#231F20" stroke-width="2" stroke-miterlimit="10"/>
<path d="M39.4625 28.2273C39.6194 27.9983 39.7292 27.7403 39.7852 27.4685C39.8413 27.1967 39.8426 26.9164 39.7891 26.6441C39.7355 26.3717 39.6282 26.1128 39.4733 25.8823C39.3185 25.6519 39.1192 25.4546 38.8872 25.3019L30.8234 19.7958C30.5974 19.6373 30.3424 19.5251 30.0728 19.4655C29.8033 19.406 29.5246 19.4004 29.2529 19.4489C28.9811 19.4975 28.7217 19.5993 28.4895 19.7485C28.2573 19.8977 28.057 20.0913 27.9001 20.3182C27.7414 20.5439 27.6291 20.7987 27.5695 21.068C27.5099 21.3372 27.5042 21.6156 27.5528 21.8871C27.6014 22.1586 27.7034 22.4177 27.8527 22.6497C28.0021 22.8816 28.1959 23.0817 28.423 23.2384L36.4922 28.7444C36.7193 28.9107 36.9776 29.0294 37.2517 29.0934C37.5259 29.1575 37.8101 29.1656 38.0875 29.1173C38.3648 29.069 38.6296 28.9653 38.8659 28.8124C39.1021 28.6594 39.305 28.4604 39.4625 28.2273Z" fill="white" stroke="#231F20" stroke-width="2" stroke-miterlimit="10"/>
<path d="M98.9844 28.2272C98.8258 28.0015 98.7133 27.7467 98.6537 27.4774C98.5941 27.2082 98.5885 26.9298 98.6371 26.6583C98.6858 26.3869 98.7876 26.1277 98.937 25.8957C99.0863 25.6638 99.2802 25.4637 99.5074 25.307L107.576 19.801C107.802 19.6425 108.057 19.5302 108.327 19.4707C108.597 19.4111 108.875 19.4055 109.147 19.454C109.419 19.5026 109.678 19.6044 109.91 19.7536C110.143 19.9028 110.343 20.0964 110.5 20.3233C110.658 20.549 110.771 20.8038 110.83 21.0731C110.89 21.3424 110.896 21.6208 110.847 21.8922C110.798 22.1637 110.696 22.4228 110.547 22.6548C110.398 22.8867 110.204 23.0868 109.977 23.2435L101.908 28.7496C101.682 28.9081 101.427 29.0203 101.157 29.0799C100.888 29.1394 100.609 29.145 100.337 29.0965C100.065 29.0479 99.8059 28.9461 99.5737 28.7969C99.3416 28.6477 99.1413 28.4541 98.9844 28.2272Z" fill="white" stroke="#231F20" stroke-width="2" stroke-miterlimit="10"/>
<path d="M50.9621 19.7122C51.1913 19.5575 51.3875 19.3589 51.5394 19.1279C51.6912 18.897 51.7957 18.6382 51.8468 18.3666C51.8979 18.095 51.8945 17.816 51.8369 17.5457C51.7793 17.2755 51.6686 17.0193 51.5112 16.792L45.9993 8.7367C45.8448 8.50733 45.6464 8.31085 45.4153 8.15865C45.1843 8.00646 44.9254 7.90156 44.6535 7.85006C44.3816 7.79856 44.1021 7.80146 43.8314 7.8586C43.5606 7.91575 43.3039 8.026 43.0761 8.18297C42.8489 8.3397 42.6551 8.53979 42.5057 8.77171C42.3564 9.00364 42.2545 9.2628 42.2058 9.53426C42.1572 9.80572 42.1629 10.0841 42.2225 10.3534C42.2821 10.6227 42.3945 10.8775 42.5531 11.1032L48.065 19.1637C48.3775 19.6188 48.8575 19.9318 49.4003 20.0346C49.9431 20.1374 50.5045 20.0215 50.9621 19.7122Z" fill="white" stroke="#231F20" stroke-width="2" stroke-miterlimit="10"/>
<path d="M35.556 119.913C33.2921 119.21 30.8706 119.194 28.5977 119.867C26.3247 120.539 24.3024 121.87 22.7865 123.69C21.2705 125.511 20.329 127.74 20.0809 130.095C19.8329 132.45 20.2896 134.825 21.393 136.921C22.4965 139.017 24.1973 140.739 26.2804 141.869C28.3635 142.999 30.7353 143.487 33.0959 143.271C35.4565 143.054 37.6999 142.144 39.5424 140.654C41.385 139.164 42.7438 137.162 43.4473 134.9C43.9151 133.399 44.0821 131.82 43.9386 130.253C43.7951 128.687 43.3441 127.165 42.6112 125.773C41.8783 124.381 40.878 123.147 39.6674 122.141C38.4568 121.136 37.0597 120.379 35.556 119.913Z" fill="#C34CA3" stroke="#231F20" stroke-width="2" stroke-miterlimit="10"/>
<path d="M58.9476 142.214C59.2457 141.477 59.5228 140.73 59.7582 139.962C59.9935 139.194 60.1974 138.395 60.37 137.648C51.6943 131.646 51.2341 127.2 58.6966 119.887C58.1026 118.503 57.4033 117.167 56.6048 115.89C46.3184 117.865 42.9245 114.981 42.8931 104.439C42.161 104.147 41.4079 103.87 40.6392 103.63C39.8704 103.389 39.0704 103.196 38.3225 103.024C32.3191 111.69 27.8636 112.145 20.5423 104.695C19.1572 105.289 17.8197 105.987 16.5417 106.785C18.5237 117.06 15.637 120.451 5.08393 120.482C4.78585 121.219 4.50873 121.966 4.2734 122.734C4.03808 123.502 3.83933 124.301 3.66153 125.048C12.3425 131.05 12.7974 135.496 5.34017 142.809C5.93195 144.192 6.63135 145.527 7.43196 146.8C17.7184 144.826 21.1123 147.709 21.1436 158.251C21.881 158.544 22.6288 158.821 23.3976 159.061C24.1663 159.301 24.9665 159.495 25.7143 159.667C31.7177 151 36.1732 150.546 43.4945 157.995C44.8796 157.402 46.217 156.704 47.495 155.906C45.5078 145.635 48.3997 142.245 58.9476 142.214ZM27.2726 146.56C24.2637 145.621 21.6008 143.813 19.6204 141.363C17.64 138.913 16.431 135.932 16.1462 132.795C15.8614 129.659 16.5136 126.509 18.0203 123.743C19.5269 120.977 21.8205 118.72 24.6112 117.255C27.402 115.791 30.5646 115.186 33.6994 115.517C36.8343 115.847 39.8007 117.098 42.2239 119.113C44.6471 121.127 46.4183 123.813 47.3136 126.832C48.209 129.851 48.1884 133.068 47.2545 136.076C46.6333 138.076 45.6234 139.934 44.2826 141.544C42.9417 143.154 41.2962 144.484 39.4402 145.457C37.5842 146.431 35.5542 147.03 33.4663 147.219C31.3785 147.408 29.2738 147.184 27.2726 146.56Z" fill="#C34CA3" stroke="#231F20" stroke-width="2" stroke-miterlimit="10"/>
<path d="M40.0795 129.577C40.2207 132.273 36.8267 134.644 32.4967 134.869C28.1667 135.093 24.5479 133.093 24.4067 130.397C24.2656 127.702 27.6595 125.335 31.9843 125.111C36.309 124.886 39.9331 126.881 40.0795 129.577Z" fill="#E79AD2"/>
<path d="M98.8537 122.055L110.641 103.217L97.7764 99.4976L114.668 74.2136L110.291 94.8691L124.682 100.783L98.8537 122.055Z" fill="#FFCA00"/>
<path d="M98.8537 122.055L110.641 103.217L97.7764 99.4976L114.668 74.2136L103.691 97.502L115.546 101.723L98.8537 122.055Z" fill="#FFFF00"/>
<path d="M98.8537 122.055L110.641 103.217L97.7764 99.4976L114.668 74.2136L110.291 94.8691L124.682 100.783L98.8537 122.055Z" stroke="#231F20" stroke-width="2" stroke-linejoin="round"/>
</svg>
